  0
SECTION
  2
HEADER
  9
$ACADVER
  1
AC1014
  9
$ACADMAINTVER
 70
     9
  9
$DWGCODEPAGE
  3
ANSI_1252
  9
$INSBASE
 10
0.0
 20
0.0
 30
0.0
  9
$EXTMIN
 10
1.000000000000000E+20
 20
1.000000000000000E+20
 30
1.000000000000000E+20
  9
$EXTMAX
 10
-1.000000000000000E+20
 20
-1.000000000000000E+20
 30
-1.000000000000000E+20
  9
$LIMMIN
 10
0.0
 20
0.0
  9
$LIMMAX
 10
12.0
 20
9.0
  9
$ORTHOMODE
 70
     0
  9
$REGENMODE
 70
     1
  9
$FILLMODE
 70
     1
  9
$QTEXTMODE
 70
     0
  9
$MIRRTEXT
 70
     1
  9
$DRAGMODE
 70
     2
  9
$LTSCALE
 40
1.0
  9
$OSMODE
 70
    37
  9
$ATTMODE
 70
     1
  9
$TEXTSIZE
 40
0.2
  9
$TRACEWID
 40
0.05
  9
$TEXTSTYLE
  7
STANDARD
  9
$CLAYER
  8
0
  9
$CELTYPE
  6
BYLAYER
  9
$CECOLOR
 62
   256
  9
$CELTSCALE
 40
1.0
  9
$DELOBJ
 70
     1
  9
$DISPSILH
 70
     0
  9
$DIMSCALE
 40
1.0
  9
$DIMASZ
 40
0.18
  9
$DIMEXO
 40
0.0625
  9
$DIMDLI
 40
0.38
  9
$DIMRND
 40
0.0
  9
$DIMDLE
 40
0.0
  9
$DIMEXE
 40
0.18
  9
$DIMTP
 40
0.0
  9
$DIMTM
 40
0.0
  9
$DIMTXT
 40
0.18
  9
$DIMCEN
 40
0.09
  9
$DIMTSZ
 40
0.0
  9
$DIMTOL
 70
     0
  9
$DIMLIM
 70
     0
  9
$DIMTIH
 70
     1
  9
$DIMTOH
 70
     1
  9
$DIMSE1
 70
     0
  9
$DIMSE2
 70
     0
  9
$DIMTAD
 70
     0
  9
$DIMZIN
 70
     0
  9
$DIMBLK
  1

  9
$DIMASO
 70
     1
  9
$DIMSHO
 70
     1
  9
$DIMPOST
  1

  9
$DIMAPOST
  1

  9
$DIMALT
 70
     0
  9
$DIMALTD
 70
     2
  9
$DIMALTF
 40
25.4
  9
$DIMLFAC
 40
1.0
  9
$DIMTOFL
 70
     0
  9
$DIMTVP
 40
0.0
  9
$DIMTIX
 70
     0
  9
$DIMSOXD
 70
     0
  9
$DIMSAH
 70
     0
  9
$DIMBLK1
  1

  9
$DIMBLK2
  1

  9
$DIMSTYLE
  2
STANDARD
  9
$DIMCLRD
 70
     0
  9
$DIMCLRE
 70
     0
  9
$DIMCLRT
 70
     0
  9
$DIMTFAC
 40
1.0
  9
$DIMGAP
 40
0.09
  9
$DIMJUST
 70
     0
  9
$DIMSD1
 70
     0
  9
$DIMSD2
 70
     0
  9
$DIMTOLJ
 70
     1
  9
$DIMTZIN
 70
     0
  9
$DIMALTZ
 70
     0
  9
$DIMALTTZ
 70
     0
  9
$DIMFIT
 70
     3
  9
$DIMUPT
 70
     0
  9
$DIMUNIT
 70
     2
  9
$DIMDEC
 70
     4
  9
$DIMTDEC
 70
     4
  9
$DIMALTU
 70
     2
  9
$DIMALTTD
 70
     2
  9
$DIMTXSTY
  7
STANDARD
  9
$DIMAUNIT
 70
     0
  9
$LUNITS
 70
     2
  9
$LUPREC
 70
     4
  9
$SKETCHINC
 40
0.1
  9
$FILLETRAD
 40
0.5
  9
$AUNITS
 70
     0
  9
$AUPREC
 70
     0
  9
$MENU
  1
.
  9
$ELEVATION
 40
0.0
  9
$PELEVATION
 40
0.0
  9
$THICKNESS
 40
0.0
  9
$LIMCHECK
 70
     0
  9
$CHAMFERA
 40
0.0
  9
$CHAMFERB
 40
0.0
  9
$CHAMFERC
 40
0.0
  9
$CHAMFERD
 40
0.0
  9
$SKPOLY
 70
     0
  9
$TDCREATE
 40
2457393.160051632
  9
$TDUPDATE
 40
2457393.160051748
  9
$TDINDWG
 40
0.0000000116
  9
$TDUSRTIMER
 40
0.0000000116
  9
$USRTIMER
 70
     1
  9
$ANGBASE
 50
0.0
  9
$ANGDIR
 70
     0
  9
$PDMODE
 70
     0
  9
$PDSIZE
 40
0.0
  9
$PLINEWID
 40
0.0
  9
$COORDS
 70
     1
  9
$SPLFRAME
 70
     0
  9
$SPLINETYPE
 70
     6
  9
$SPLINESEGS
 70
     8
  9
$ATTDIA
 70
     0
  9
$ATTREQ
 70
     1
  9
$HANDLING
 70
     1
  9
$HANDSEED
  5
2B8
  9
$SURFTAB1
 70
     6
  9
$SURFTAB2
 70
     6
  9
$SURFTYPE
 70
     6
  9
$SURFU
 70
     6
  9
$SURFV
 70
     6
  9
$UCSNAME
  2

  9
$UCSORG
 10
0.0
 20
0.0
 30
0.0
  9
$UCSXDIR
 10
1.0
 20
0.0
 30
0.0
  9
$UCSYDIR
 10
0.0
 20
1.0
 30
0.0
  9
$PUCSNAME
  2

  9
$PUCSORG
 10
0.0
 20
0.0
 30
0.0
  9
$PUCSXDIR
 10
1.0
 20
0.0
 30
0.0
  9
$PUCSYDIR
 10
0.0
 20
1.0
 30
0.0
  9
$USERI1
 70
     0
  9
$USERI2
 70
     0
  9
$USERI3
 70
     0
  9
$USERI4
 70
     0
  9
$USERI5
 70
     0
  9
$USERR1
 40
0.0
  9
$USERR2
 40
0.0
  9
$USERR3
 40
0.0
  9
$USERR4
 40
0.0
  9
$USERR5
 40
0.0
  9
$WORLDVIEW
 70
     1
  9
$SHADEDGE
 70
     3
  9
$SHADEDIF
 70
    70
  9
$TILEMODE
 70
     1
  9
$MAXACTVP
 70
    64
  9
$PINSBASE
 10
0.0
 20
0.0
 30
0.0
  9
$PLIMCHECK
 70
     0
  9
$PEXTMIN
 10
1.000000000000000E+20
 20
1.000000000000000E+20
 30
1.000000000000000E+20
  9
$PEXTMAX
 10
-1.000000000000000E+20
 20
-1.000000000000000E+20
 30
-1.000000000000000E+20
  9
$PLIMMIN
 10
0.0
 20
0.0
  9
$PLIMMAX
 10
12.0
 20
9.0
  9
$UNITMODE
 70
     0
  9
$VISRETAIN
 70
     1
  9
$PLINEGEN
 70
     0
  9
$PSLTSCALE
 70
     1
  9
$TREEDEPTH
 70
  3020
  9
$PICKSTYLE
 70
     1
  9
$CMLSTYLE
  2
STANDARD
  9
$CMLJUST
 70
     0
  9
$CMLSCALE
 40
1.0
  9
$PROXYGRAPHICS
 70
     1
  9
$MEASUREMENT
 70
     0
  0
ENDSEC
  0
SECTION
  2
CLASSES
  0
CLASS
  1
ACDBDICTIONARYWDFLT
  2
AcDbDictionaryWithDefault
  3
ObjectDBX Classes
 90
        0
280
     0
281
     0
  0
CLASS
  1
VISUALSTYLE
  2
AcDbVisualStyle
  3
ObjectDBX Classes
 90
     4095
280
     0
281
     0
  0
CLASS
  1
MATERIAL
  2
AcDbMaterial
  3
ObjectDBX Classes
 90
     1153
280
     0
281
     0
  0
CLASS
  1
SCALE
  2
AcDbScale
  3
ObjectDBX Classes
 90
     1153
280
     0
281
     0
  0
CLASS
  1
SUN
  2
AcDbSun
  3
SCENEOE
 90
     1153
280
     0
281
     0
  0
CLASS
  1
DICTIONARYVAR
  2
AcDbDictionaryVar
  3
ObjectDBX Classes
 90
        0
280
     0
281
     0
  0
CLASS
  1
XRECORD
  2
AcDbXrecord
  3
ObjectDBX Classes
 90
        0
280
     0
281
     0
  0
CLASS
  1
LWPOLYLINE
  2
AcDbPolyline
  3
ObjectDBX Classes
 90
        0
280
     0
281
     1
  0
CLASS
  1
HATCH
  2
AcDbHatch
  3
ObjectDBX Classes
 90
        0
280
     0
281
     1
  0
CLASS
  1
ACDBPLACEHOLDER
  2
AcDbPlaceHolder
  3
ObjectDBX Classes
 90
        0
280
     0
281
     0
  0
CLASS
  1
LAYOUT
  2
AcDbLayout
  3
ObjectDBX Classes
 90
        0
280
     0
281
     0
  0
ENDSEC
  0
SECTION
  2
TABLES
  0
TABLE
  2
VPORT
  5
8
102
{ACAD_XDICTIONARY
360
2AE
102
}
330
0
100
AcDbSymbolTable
 70
     1
  0
VPORT
  5
29
330
8
100
AcDbSymbolTableRecord
100
AcDbViewportTableRecord
  2
*ACTIVE
 70
     0
 10
0.0
 20
0.0
 11
1.0
 21
1.0
 12
0.0
 22
0.0
 13
0.0
 23
0.0
 14
0.5
 24
0.5
 15
0.5
 25
0.5
 16
-40.48483680901602
 26
96.72323931184397
 36
44.99144295416647
 17
-10.64764618575875
 27
1.385381477187551
 37
6.691553307932971
 40
133.0
 41
1.3333
 42
50.0
 43
-113.0992417745487
 44
885.9007582254513
 50
0.0
 51
0.0
 71
     0
 72
   100
 73
     1
 74
     3
 75
     0
 76
     0
 77
     0
 78
     0
  0
ENDTAB
  0
TABLE
  2
LTYPE
  5
5
330
0
100
AcDbSymbolTable
 70
     1
  0
LTYPE
  5
14
330
5
100
AcDbSymbolTableRecord
100
AcDbLinetypeTableRecord
  2
BYBLOCK
 70
     0
  3

 72
    65
 73
     0
 40
0.0
  0
LTYPE
  5
15
330
5
100
AcDbSymbolTableRecord
100
AcDbLinetypeTableRecord
  2
BYLAYER
 70
     0
  3

 72
    65
 73
     0
 40
0.0
  0
LTYPE
  5
16
330
5
100
AcDbSymbolTableRecord
100
AcDbLinetypeTableRecord
  2
CONTINUOUS
 70
     0
  3
Solid line
 72
    65
 73
     0
 40
0.0
  0
ENDTAB
  0
TABLE
  2
LAYER
  5
2
330
0
100
AcDbSymbolTable
 70
     1
  0
LAYER
  5
10
330
2
100
AcDbSymbolTableRecord
100
AcDbLayerTableRecord
  2
0
 70
     0
 62
    13
  6
CONTINUOUS
  0
ENDTAB
  0
TABLE
  2
STYLE
  5
3
330
0
100
AcDbSymbolTable
 70
     2
  0
STYLE
  5
11
330
3
100
AcDbSymbolTableRecord
100
AcDbTextStyleTableRecord
  2
STANDARD
 70
     0
 40
0.0
 41
1.0
 50
0.0
 71
     0
 42
0.2
  3
txt
  4

  0
STYLE
  5
6A
330
3
100
AcDbSymbolTableRecord
100
AcDbTextStyleTableRecord
  2
TAHOMA
 70
     0
 40
0.0
 41
1.0
 50
0.0
 71
     0
 42
0.2
  3
Tahoma
  4

1001
ACAD
1000
Tahoma
1071
       34
  0
ENDTAB
  0
TABLE
  2
VIEW
  5
6
330
0
100
AcDbSymbolTable
 70
     0
  0
ENDTAB
  0
TABLE
  2
UCS
  5
7
330
0
100
AcDbSymbolTable
 70
     0
  0
ENDTAB
  0
TABLE
  2
APPID
  5
9
330
0
100
AcDbSymbolTable
 70
     1
  0
APPID
  5
12
330
9
100
AcDbSymbolTableRecord
100
AcDbRegAppTableRecord
  2
ACAD
 70
     0
  0
ENDTAB
  0
TABLE
  2
DIMSTYLE
  5
A
330
0
100
AcDbSymbolTable
 70
     1
  0
DIMSTYLE
105
27
330
A
100
AcDbSymbolTableRecord
100
AcDbDimStyleTableRecord
  2
STANDARD
 70
     0
  3

  4

  5

  6

  7

 40
1.0
 41
0.18
 42
0.0625
 43
0.38
 44
0.18
 45
0.0
 46
0.0
 47
0.0
 48
0.0
140
0.18
141
0.09
142
0.0
143
25.4
144
1.0
145
0.0
146
1.0
147
0.09
 71
     0
 72
     0
 73
     1
 74
     1
 75
     0
 76
     0
 77
     0
 78
     0
170
     0
171
     2
172
     0
173
     0
174
     0
175
     0
176
     0
177
     0
178
     0
270
     2
271
     4
272
     4
273
     2
274
     2
340
11
275
     0
280
     0
281
     0
282
     0
283
     1
284
     0
285
     0
286
     0
287
     3
288
     0
  0
ENDTAB
  0
TABLE
  2
BLOCK_RECORD
  5
1
330
0
100
AcDbSymbolTable
 70
     4
  0
BLOCK_RECORD
  5
1F
330
1
100
AcDbSymbolTableRecord
100
AcDbBlockTableRecord
  2
*MODEL_SPACE
  0
BLOCK_RECORD
  5
1B
330
1
100
AcDbSymbolTableRecord
100
AcDbBlockTableRecord
  2
*PAPER_SPACE
  0
BLOCK_RECORD
  5
6B
330
1
100
AcDbSymbolTableRecord
100
AcDbBlockTableRecord
  2
TOP
  0
BLOCK_RECORD
  5
6E
330
1
100
AcDbSymbolTableRecord
100
AcDbBlockTableRecord
  2
STRETCHER
  0
BLOCK_RECORD
  5
71
330
1
100
AcDbSymbolTableRecord
100
AcDbBlockTableRecord
  2
LEG
  0
ENDTAB
  0
ENDSEC
  0
SECTION
  2
BLOCKS
  0
BLOCK
  5
20
330
1F
100
AcDbEntity
  8
0
100
AcDbBlockBegin
  2
*MODEL_SPACE
 70
     0
 10
0.0
 20
0.0
 30
0.0
  3
*MODEL_SPACE
  1

  0
ENDBLK
  5
21
330
1F
100
AcDbEntity
  8
0
100
AcDbBlockEnd
  0
BLOCK
  5
1C
330
1B
100
AcDbEntity
 67
     1
  8
0
100
AcDbBlockBegin
  2
*PAPER_SPACE
 70
     0
 10
0.0
 20
0.0
 30
0.0
  3
*PAPER_SPACE
  1

  0
ENDBLK
  5
1D
330
1B
100
AcDbEntity
 67
     1
  8
0
100
AcDbBlockEnd
  0
BLOCK
  5
6C
330
6B
100
AcDbEntity
  8
0
100
AcDbBlockBegin
  2
TOP
 70
     0
 10
0.0
 20
0.0
 30
0.0
  3
TOP
  1
TOP
  0
LINE
  5
74
330
6B
100
AcDbEntity
  8
0
100
AcDbLine
 10
21.99999999999998
 20
22.00000000000002
 30
0.0
 11
0.0
 21
22.00000000000002
 31
0.0
  0
LINE
  5
75
330
6B
100
AcDbEntity
  8
0
100
AcDbLine
 10
0.0
 20
0.0
 30
0.0
 11
21.99999999999998
 21
0.0
 31
0.0
  0
LINE
  5
76
330
6B
100
AcDbEntity
  8
0
100
AcDbLine
 10
21.99999999999998
 20
0.0
 30
0.0
 11
21.99999999999998
 21
22.00000000000002
 31
0.0
  0
LINE
  5
77
330
6B
100
AcDbEntity
  8
0
100
AcDbLine
 10
0.0
 20
22.00000000000002
 30
0.0
 11
0.0
 21
0.0
 31
0.0
  0
LINE
  5
78
330
6B
100
AcDbEntity
  8
0
100
AcDbLine
 10
21.99999999999998
 20
22.00000000000002
 30
0.75
 11
0.0
 21
22.00000000000002
 31
0.75
  0
LINE
  5
79
330
6B
100
AcDbEntity
  8
0
100
AcDbLine
 10
0.0
 20
0.0
 30
0.0
 11
0.0
 21
0.0
 31
0.75
  0
LINE
  5
7A
330
6B
100
AcDbEntity
  8
0
100
AcDbLine
 10
21.99999999999998
 20
22.00000000000002
 30
0.0
 11
21.99999999999998
 21
22.00000000000002
 31
0.75
  0
LINE
  5
7B
330
6B
100
AcDbEntity
  8
0
100
AcDbLine
 10
0.0
 20
22.00000000000002
 30
0.0
 11
0.0
 21
22.00000000000002
 31
0.75
  0
LINE
  5
7C
330
6B
100
AcDbEntity
  8
0
100
AcDbLine
 10
0.0
 20
0.0
 30
0.75
 11
21.99999999999998
 21
0.0
 31
0.75
  0
LINE
  5
7D
330
6B
100
AcDbEntity
  8
0
100
AcDbLine
 10
0.0
 20
22.00000000000002
 30
0.75
 11
0.0
 21
0.0
 31
0.75
  0
LINE
  5
7E
330
6B
100
AcDbEntity
  8
0
100
AcDbLine
 10
21.99999999999998
 20
0.0
 30
0.75
 11
21.99999999999998
 21
22.00000000000002
 31
0.75
  0
LINE
  5
7F
330
6B
100
AcDbEntity
  8
0
100
AcDbLine
 10
21.99999999999998
 20
0.0
 30
0.0
 11
21.99999999999998
 21
0.0
 31
0.75
  0
POLYLINE
  5
80
330
6B
100
AcDbEntity
  8
0
100
AcDbPolyFaceMesh
 66
     1
 10
0.0
 20
0.0
 30
0.0
 70
    64
 71
     4
 72
     2
  0
VERTEX
  5
81
330
80
100
AcDbEntity
  8
0
100
AcDbVertex
100
AcDbPolyFaceMeshVertex
 10
21.99999999999998
 20
22.00000000000002
 30
0.0
 70
   192
  0
VERTEX
  5
82
330
80
100
AcDbEntity
  8
0
100
AcDbVertex
100
AcDbPolyFaceMeshVertex
 10
0.0
 20
0.0
 30
0.0
 70
   192
  0
VERTEX
  5
83
330
80
100
AcDbEntity
  8
0
100
AcDbVertex
100
AcDbPolyFaceMeshVertex
 10
0.0
 20
22.00000000000002
 30
0.0
 70
   192
  0
VERTEX
  5
84
330
80
100
AcDbEntity
  8
0
100
AcDbVertex
100
AcDbPolyFaceMeshVertex
 10
21.99999999999998
 20
0.0
 30
0.0
 70
   192
  0
VERTEX
  5
85
330
80
100
AcDbEntity
  8
0
100
AcDbFaceRecord
 10
0.0
 20
0.0
 30
0.0
 70
   128
 71
    -1
 72
     2
 73
     3
  0
VERTEX
  5
86
330
80
100
AcDbEntity
  8
0
100
AcDbFaceRecord
 10
0.0
 20
0.0
 30
0.0
 70
   128
 71
    -2
 72
     1
 73
     4
  0
SEQEND
  5
87
330
80
100
AcDbEntity
  8
0
  0
POLYLINE
  5
88
330
6B
100
AcDbEntity
  8
0
100
AcDbPolyFaceMesh
 66
     1
 10
0.0
 20
0.0
 30
0.0
 70
    64
 71
     4
 72
     2
  0
VERTEX
  5
89
330
88
100
AcDbEntity
  8
0
100
AcDbVertex
100
AcDbPolyFaceMeshVertex
 10
0.0
 20
22.00000000000002
 30
0.75
 70
   192
  0
VERTEX
  5
8A
330
88
100
AcDbEntity
  8
0
100
AcDbVertex
100
AcDbPolyFaceMeshVertex
 10
0.0
 20
0.0
 30
0.0
 70
   192
  0
VERTEX
  5
8B
330
88
100
AcDbEntity
  8
0
100
AcDbVertex
100
AcDbPolyFaceMeshVertex
 10
0.0
 20
0.0
 30
0.75
 70
   192
  0
VERTEX
  5
8C
330
88
100
AcDbEntity
  8
0
100
AcDbVertex
100
AcDbPolyFaceMeshVertex
 10
0.0
 20
22.00000000000002
 30
0.0
 70
   192
  0
VERTEX
  5
8D
330
88
100
AcDbEntity
  8
0
100
AcDbFaceRecord
 10
0.0
 20
0.0
 30
0.0
 70
   128
 71
    -1
 72
     2
 73
     3
  0
VERTEX
  5
8E
330
88
100
AcDbEntity
  8
0
100
AcDbFaceRecord
 10
0.0
 20
0.0
 30
0.0
 70
   128
 71
    -2
 72
     1
 73
     4
  0
SEQEND
  5
8F
330
88
100
AcDbEntity
  8
0
  0
POLYLINE
  5
90
330
6B
100
AcDbEntity
  8
0
100
AcDbPolyFaceMesh
 66
     1
 10
0.0
 20
0.0
 30
0.0
 70
    64
 71
     4
 72
     2
  0
VERTEX
  5
91
330
90
100
AcDbEntity
  8
0
100
AcDbVertex
100
AcDbPolyFaceMeshVertex
 10
21.99999999999998
 20
0.0
 30
0.75
 70
   192
  0
VERTEX
  5
92
330
90
100
AcDbEntity
  8
0
100
AcDbVertex
100
AcDbPolyFaceMeshVertex
 10
0.0
 20
22.00000000000002
 30
0.75
 70
   192
  0
VERTEX
  5
93
330
90
100
AcDbEntity
  8
0
100
AcDbVertex
100
AcDbPolyFaceMeshVertex
 10
0.0
 20
0.0
 30
0.75
 70
   192
  0
VERTEX
  5
94
330
90
100
AcDbEntity
  8
0
100
AcDbVertex
100
AcDbPolyFaceMeshVertex
 10
21.99999999999998
 20
22.00000000000002
 30
0.75
 70
   192
  0
VERTEX
  5
95
330
90
100
AcDbEntity
  8
0
100
AcDbFaceRecord
 10
0.0
 20
0.0
 30
0.0
 70
   128
 71
    -1
 72
     2
 73
     3
  0
VERTEX
  5
96
330
90
100
AcDbEntity
  8
0
100
AcDbFaceRecord
 10
0.0
 20
0.0
 30
0.0
 70
   128
 71
    -2
 72
     1
 73
     4
  0
SEQEND
  5
97
330
90
100
AcDbEntity
  8
0
  0
POLYLINE
  5
98
330
6B
100
AcDbEntity
  8
0
100
AcDbPolyFaceMesh
 66
     1
 10
0.0
 20
0.0
 30
0.0
 70
    64
 71
     4
 72
     2
  0
VERTEX
  5
99
330
98
100
AcDbEntity
  8
0
100
AcDbVertex
100
AcDbPolyFaceMeshVertex
 10
0.0
 20
22.00000000000002
 30
0.75
 70
   192
  0
VERTEX
  5
9A
330
98
100
AcDbEntity
  8
0
100
AcDbVertex
100
AcDbPolyFaceMeshVertex
 10
21.99999999999998
 20
22.00000000000002
 30
0.0
 70
   192
  0
VERTEX
  5
9B
330
98
100
AcDbEntity
  8
0
100
AcDbVertex
100
AcDbPolyFaceMeshVertex
 10
0.0
 20
22.00000000000002
 30
0.0
 70
   192
  0
VERTEX
  5
9C
330
98
100
AcDbEntity
  8
0
100
AcDbVertex
100
AcDbPolyFaceMeshVertex
 10
21.99999999999998
 20
22.00000000000002
 30
0.75
 70
   192
  0
VERTEX
  5
9D
330
98
100
AcDbEntity
  8
0
100
AcDbFaceRecord
 10
0.0
 20
0.0
 30
0.0
 70
   128
 71
    -1
 72
     2
 73
     3
  0
VERTEX
  5
9E
330
98
100
AcDbEntity
  8
0
100
AcDbFaceRecord
 10
0.0
 20
0.0
 30
0.0
 70
   128
 71
    -2
 72
     1
 73
     4
  0
SEQEND
  5
9F
330
98
100
AcDbEntity
  8
0
  0
POLYLINE
  5
A0
330
6B
100
AcDbEntity
  8
0
100
AcDbPolyFaceMesh
 66
     1
 10
0.0
 20
0.0
 30
0.0
 70
    64
 71
     4
 72
     2
  0
VERTEX
  5
A1
330
A0
100
AcDbEntity
  8
0
100
AcDbVertex
100
AcDbPolyFaceMeshVertex
 10
21.99999999999998
 20
22.00000000000002
 30
0.0
 70
   192
  0
VERTEX
  5
A2
330
A0
100
AcDbEntity
  8
0
100
AcDbVertex
100
AcDbPolyFaceMeshVertex
 10
21.99999999999998
 20
0.0
 30
0.75
 70
   192
  0
VERTEX
  5
A3
330
A0
100
AcDbEntity
  8
0
100
AcDbVertex
100
AcDbPolyFaceMeshVertex
 10
21.99999999999998
 20
0.0
 30
0.0
 70
   192
  0
VERTEX
  5
A4
330
A0
100
AcDbEntity
  8
0
100
AcDbVertex
100
AcDbPolyFaceMeshVertex
 10
21.99999999999998
 20
22.00000000000002
 30
0.75
 70
   192
  0
VERTEX
  5
A5
330
A0
100
AcDbEntity
  8
0
100
AcDbFaceRecord
 10
0.0
 20
0.0
 30
0.0
 70
   128
 71
    -1
 72
     2
 73
     3
  0
VERTEX
  5
A6
330
A0
100
AcDbEntity
  8
0
100
AcDbFaceRecord
 10
0.0
 20
0.0
 30
0.0
 70
   128
 71
    -2
 72
     1
 73
     4
  0
SEQEND
  5
A7
330
A0
100
AcDbEntity
  8
0
  0
POLYLINE
  5
A8
330
6B
100
AcDbEntity
  8
0
100
AcDbPolyFaceMesh
 66
     1
 10
0.0
 20
0.0
 30
0.0
 70
    64
 71
     4
 72
     2
  0
VERTEX
  5
A9
330
A8
100
AcDbEntity
  8
0
100
AcDbVertex
100
AcDbPolyFaceMeshVertex
 10
21.99999999999998
 20
0.0
 30
0.75
 70
   192
  0
VERTEX
  5
AA
330
A8
100
AcDbEntity
  8
0
100
AcDbVertex
100
AcDbPolyFaceMeshVertex
 10
0.0
 20
0.0
 30
0.0
 70
   192
  0
VERTEX
  5
AB
330
A8
100
AcDbEntity
  8
0
100
AcDbVertex
100
AcDbPolyFaceMeshVertex
 10
21.99999999999998
 20
0.0
 30
0.0
 70
   192
  0
VERTEX
  5
AC
330
A8
100
AcDbEntity
  8
0
100
AcDbVertex
100
AcDbPolyFaceMeshVertex
 10
0.0
 20
0.0
 30
0.75
 70
   192
  0
VERTEX
  5
AD
330
A8
100
AcDbEntity
  8
0
100
AcDbFaceRecord
 10
0.0
 20
0.0
 30
0.0
 70
   128
 71
    -1
 72
     2
 73
     3
  0
VERTEX
  5
AE
330
A8
100
AcDbEntity
  8
0
100
AcDbFaceRecord
 10
0.0
 20
0.0
 30
0.0
 70
   128
 71
    -2
 72
     1
 73
     4
  0
SEQEND
  5
AF
330
A8
100
AcDbEntity
  8
0
  0
ENDBLK
  5
6D
330
6B
100
AcDbEntity
  8
0
100
AcDbBlockEnd
  0
BLOCK
  5
6F
330
6E
100
AcDbEntity
  8
0
100
AcDbBlockBegin
  2
STRETCHER
 70
     0
 10
0.0
 20
0.0
 30
0.0
  3
STRETCHER
  1
STRETCHER
  0
LINE
  5
B0
330
6E
100
AcDbEntity
  8
0
100
AcDbLine
 10
0.0
 20
0.75
 30
0.0
 11
0.0
 21
0.75
 31
3.0
  0
LINE
  5
B1
330
6E
100
AcDbEntity
  8
0
100
AcDbLine
 10
0.0
 20
0.75
 30
3.0
 11
0.0095629999999982
 21
0.7500000000000002
 31
3.0
  0
LINE
  5
B2
330
6E
100
AcDbEntity
  8
0
100
AcDbLine
 10
14.0
 20
0.75
 30
0.0
 11
0.0095629999999982
 21
0.7500000000000002
 31
0.0
  0
LINE
  5
B3
330
6E
100
AcDbEntity
  8
0
100
AcDbLine
 10
0.0
 20
0.0
 30
0.0
 11
0.0
 21
0.0
 31
3.0
  0
LINE
  5
B4
330
6E
100
AcDbEntity
  8
0
100
AcDbLine
 10
0.0
 20
0.0
 30
3.0
 11
0.0
 21
0.75
 31
3.0
  0
LINE
  5
B5
330
6E
100
AcDbEntity
  8
0
100
AcDbLine
 10
0.0
 20
0.0
 30
0.0
 11
0.0
 21
0.75
 31
0.0
  0
LINE
  5
B6
330
6E
100
AcDbEntity
  8
0
100
AcDbLine
 10
0.0
 20
0.0
 30
3.0
 11
0.0095629999999982
 21
0.0
 31
3.0
  0
LINE
  5
B7
330
6E
100
AcDbEntity
  8
0
100
AcDbLine
 10
14.0
 20
0.0
 30
0.0
 11
0.0095629999999982
 21
0.0
 31
0.0
  0
LINE
  5
B8
330
6E
100
AcDbEntity
  8
0
100
AcDbLine
 10
14.0
 20
0.25
 30
2.75
 11
14.0
 21
0.25
 31
0.25
  0
LINE
  5
B9
330
6E
100
AcDbEntity
  8
0
100
AcDbLine
 10
14.0
 20
0.25
 30
0.25
 11
14.0
 21
0.5
 31
0.25
  0
LINE
  5
BA
330
6E
100
AcDbEntity
  8
0
100
AcDbLine
 10
14.0
 20
0.5
 30
0.25
 11
14.0
 21
0.5
 31
2.75
  0
LINE
  5
BB
330
6E
100
AcDbEntity
  8
0
100
AcDbLine
 10
14.0
 20
0.5
 30
2.75
 11
14.0
 21
0.25
 31
2.75
  0
LINE
  5
BC
330
6E
100
AcDbEntity
  8
0
100
AcDbLine
 10
14.0
 20
0.0
 30
3.0
 11
14.0
 21
0.0
 31
0.0
  0
LINE
  5
BD
330
6E
100
AcDbEntity
  8
0
100
AcDbLine
 10
14.0
 20
0.0
 30
0.0
 11
14.0
 21
0.75
 31
0.0
  0
LINE
  5
BE
330
6E
100
AcDbEntity
  8
0
100
AcDbLine
 10
14.0
 20
0.75
 30
3.0
 11
14.0
 21
0.75
 31
0.0
  0
LINE
  5
BF
330
6E
100
AcDbEntity
  8
0
100
AcDbLine
 10
14.0
 20
0.0
 30
3.0
 11
14.0
 21
0.75
 31
3.0
  0
LINE
  5
C0
330
6E
100
AcDbEntity
  8
0
100
AcDbLine
 10
14.75
 20
0.5
 30
2.75
 11
14.75
 21
0.25
 31
2.75
  0
LINE
  5
C1
330
6E
100
AcDbEntity
  8
0
100
AcDbLine
 10
14.75
 20
0.25
 30
2.75
 11
14.75
 21
0.25
 31
0.25
  0
LINE
  5
C2
330
6E
100
AcDbEntity
  8
0
100
AcDbLine
 10
14.75
 20
0.25
 30
0.25
 11
14.75
 21
0.5
 31
0.25
  0
LINE
  5
C3
330
6E
100
AcDbEntity
  8
0
100
AcDbLine
 10
14.75
 20
0.5
 30
0.25
 11
14.75
 21
0.5
 31
2.75
  0
LINE
  5
C4
330
6E
100
AcDbEntity
  8
0
100
AcDbLine
 10
14.0
 20
0.25
 30
2.75
 11
14.75
 21
0.25
 31
2.75
  0
LINE
  5
C5
330
6E
100
AcDbEntity
  8
0
100
AcDbLine
 10
14.0
 20
0.5
 30
2.75
 11
14.75
 21
0.5
 31
2.75
  0
LINE
  5
C6
330
6E
100
AcDbEntity
  8
0
100
AcDbLine
 10
14.0
 20
0.25
 30
0.25
 11
14.75
 21
0.25
 31
0.25
  0
LINE
  5
C7
330
6E
100
AcDbEntity
  8
0
100
AcDbLine
 10
14.0
 20
0.5
 30
0.25
 11
14.75
 21
0.5
 31
0.25
  0
LINE
  5
C8
330
6E
100
AcDbEntity
  8
0
100
AcDbLine
 10
0.0095629999999982
 20
0.25
 30
2.75
 11
-0.7404370000000009
 21
0.25
 31
2.75
  0
LINE
  5
C9
330
6E
100
AcDbEntity
  8
0
100
AcDbLine
 10
-0.7404370000000009
 20
0.25
 30
0.25
 11
-0.7404370000000009
 21
0.5
 31
0.25
  0
LINE
  5
CA
330
6E
100
AcDbEntity
  8
0
100
AcDbLine
 10
0.0095629999999982
 20
0.0
 30
3.0
 11
0.0095629999999982
 21
0.0
 31
0.0
  0
LINE
  5
CB
330
6E
100
AcDbEntity
  8
0
100
AcDbLine
 10
0.0095629999999982
 20
0.0
 30
0.0
 11
0.0095629999999982
 21
0.7500000000000002
 31
0.0
  0
LINE
  5
CC
330
6E
100
AcDbEntity
  8
0
100
AcDbLine
 10
0.0095629999999982
 20
0.5
 30
2.75
 11
0.0095629999999982
 21
0.25
 31
2.75
  0
LINE
  5
CD
330
6E
100
AcDbEntity
  8
0
100
AcDbLine
 10
0.0095629999999982
 20
0.5
 30
0.25
 11
-0.7404370000000009
 21
0.5
 31
0.25
  0
LINE
  5
CE
330
6E
100
AcDbEntity
  8
0
100
AcDbLine
 10
0.0095629999999982
 20
0.5
 30
2.75
 11
-0.7404370000000009
 21
0.5
 31
2.75
  0
LINE
  5
CF
330
6E
100
AcDbEntity
  8
0
100
AcDbLine
 10
0.0095629999999982
 20
0.5
 30
0.25
 11
0.0095629999999982
 21
0.5
 31
2.75
  0
LINE
  5
D0
330
6E
100
AcDbEntity
  8
0
100
AcDbLine
 10
-0.7404370000000009
 20
0.5
 30
0.25
 11
-0.7404370000000009
 21
0.5
 31
2.75
  0
LINE
  5
D1
330
6E
100
AcDbEntity
  8
0
100
AcDbLine
 10
-0.7404370000000009
 20
0.25
 30
2.75
 11
-0.7404370000000009
 21
0.25
 31
0.25
  0
LINE
  5
D2
330
6E
100
AcDbEntity
  8
0
100
AcDbLine
 10
-0.7404370000000009
 20
0.5
 30
2.75
 11
-0.7404370000000009
 21
0.25
 31
2.75
  0
LINE
  5
D3
330
6E
100
AcDbEntity
  8
0
100
AcDbLine
 10
0.0095629999999982
 20
0.25
 30
2.75
 11
0.0095629999999982
 21
0.25
 31
0.25
  0
LINE
  5
D4
330
6E
100
AcDbEntity
  8
0
100
AcDbLine
 10
0.0095629999999982
 20
0.7500000000000002
 30
3.0
 11
0.0095629999999982
 21
0.7500000000000002
 31
0.0
  0
LINE
  5
D5
330
6E
100
AcDbEntity
  8
0
100
AcDbLine
 10
0.0095629999999982
 20
0.0
 30
3.0
 11
0.0095629999999982
 21
0.7500000000000002
 31
3.0
  0
LINE
  5
D6
330
6E
100
AcDbEntity
  8
0
100
AcDbLine
 10
0.0095629999999982
 20
0.25
 30
0.25
 11
-0.7404370000000009
 21
0.25
 31
0.25
  0
LINE
  5
D7
330
6E
100
AcDbEntity
  8
0
100
AcDbLine
 10
0.0095629999999982
 20
0.25
 30
0.25
 11
0.0095629999999982
 21
0.5
 31
0.25
  0
LINE
  5
D8
330
6E
100
AcDbEntity
  8
0
100
AcDbLine
 10
0.0095629999999982
 20
0.7500000000000002
 30
3.0
 11
14.0
 21
0.75
 31
3.0
  0
LINE
  5
D9
330
6E
100
AcDbEntity
  8
0
100
AcDbLine
 10
0.0095629999999982
 20
0.7500000000000002
 30
0.0
 11
0.0
 21
0.75
 31
0.0
  0
LINE
  5
DA
330
6E
100
AcDbEntity
  8
0
100
AcDbLine
 10
0.0095629999999982
 20
0.0
 30
3.0
 11
14.0
 21
0.0
 31
3.0
  0
LINE
  5
DB
330
6E
100
AcDbEntity
  8
0
100
AcDbLine
 10
0.0095629999999982
 20
0.0
 30
0.0
 11
0.0
 21
0.0
 31
0.0
  0
POLYLINE
  5
DC
330
6E
100
AcDbEntity
  8
0
100
AcDbPolyFaceMesh
 66
     1
 10
0.0
 20
0.0
 30
0.0
 70
    64
 71
     4
 72
     2
  0
VERTEX
  5
DD
330
DC
100
AcDbEntity
  8
0
100
AcDbVertex
100
AcDbPolyFaceMeshVertex
 10
0.0
 20
0.75
 30
3.0
 70
   192
  0
VERTEX
  5
DE
330
DC
100
AcDbEntity
  8
0
100
AcDbVertex
100
AcDbPolyFaceMeshVertex
 10
0.0095629999999982
 20
0.7500000000000002
 30
0.0
 70
   192
  0
VERTEX
  5
DF
330
DC
100
AcDbEntity
  8
0
100
AcDbVertex
100
AcDbPolyFaceMeshVertex
 10
0.0
 20
0.75
 30
0.0
 70
   192
  0
VERTEX
  5
E0
330
DC
100
AcDbEntity
  8
0
100
AcDbVertex
100
AcDbPolyFaceMeshVertex
 10
0.0095629999999982
 20
0.7500000000000002
 30
3.0
 70
   192
  0
VERTEX
  5
E1
330
DC
100
AcDbEntity
  8
0
100
AcDbFaceRecord
 10
0.0
 20
0.0
 30
0.0
 70
   128
 71
    -1
 72
     2
 73
     3
  0
VERTEX
  5
E2
330
DC
100
AcDbEntity
  8
0
100
AcDbFaceRecord
 10
0.0
 20
0.0
 30
0.0
 70
   128
 71
    -2
 72
     1
 73
     4
  0
SEQEND
  5
E3
330
DC
100
AcDbEntity
  8
0
  0
POLYLINE
  5
E4
330
6E
100
AcDbEntity
  8
0
100
AcDbPolyFaceMesh
 66
     1
 10
0.0
 20
0.0
 30
0.0
 70
    64
 71
     4
 72
     2
  0
VERTEX
  5
E5
330
E4
100
AcDbEntity
  8
0
100
AcDbVertex
100
AcDbPolyFaceMeshVertex
 10
0.0095629999999982
 20
0.0
 30
3.0
 70
   192
  0
VERTEX
  5
E6
330
E4
100
AcDbEntity
  8
0
100
AcDbVertex
100
AcDbPolyFaceMeshVertex
 10
0.0
 20
0.75
 30
3.0
 70
   192
  0
VERTEX
  5
E7
330
E4
100
AcDbEntity
  8
0
100
AcDbVertex
100
AcDbPolyFaceMeshVertex
 10
0.0
 20
0.0
 30
3.0
 70
   192
  0
VERTEX
  5
E8
330
E4
100
AcDbEntity
  8
0
100
AcDbVertex
100
AcDbPolyFaceMeshVertex
 10
0.0095629999999982
 20
0.7500000000000002
 30
3.0
 70
   192
  0
VERTEX
  5
E9
330
E4
100
AcDbEntity
  8
0
100
AcDbFaceRecord
 10
0.0
 20
0.0
 30
0.0
 70
   128
 71
    -1
 72
     2
 73
     3
  0
VERTEX
  5
EA
330
E4
100
AcDbEntity
  8
0
100
AcDbFaceRecord
 10
0.0
 20
0.0
 30
0.0
 70
   128
 71
    -2
 72
     1
 73
     4
  0
SEQEND
  5
EB
330
E4
100
AcDbEntity
  8
0
  0
POLYLINE
  5
EC
330
6E
100
AcDbEntity
  8
0
100
AcDbPolyFaceMesh
 66
     1
 10
0.0
 20
0.0
 30
0.0
 70
    64
 71
     4
 72
     2
  0
VERTEX
  5
ED
330
EC
100
AcDbEntity
  8
0
100
AcDbVertex
100
AcDbPolyFaceMeshVertex
 10
14.0
 20
0.0
 30
3.0
 70
   192
  0
VERTEX
  5
EE
330
EC
100
AcDbEntity
  8
0
100
AcDbVertex
100
AcDbPolyFaceMeshVertex
 10
0.0095629999999982
 20
0.0
 30
0.0
 70
   192
  0
VERTEX
  5
EF
330
EC
100
AcDbEntity
  8
0
100
AcDbVertex
100
AcDbPolyFaceMeshVertex
 10
14.0
 20
0.0
 30
0.0
 70
   192
  0
VERTEX
  5
F0
330
EC
100
AcDbEntity
  8
0
100
AcDbVertex
100
AcDbPolyFaceMeshVertex
 10
0.0095629999999982
 20
0.0
 30
3.0
 70
   192
  0
VERTEX
  5
F1
330
EC
100
AcDbEntity
  8
0
100
AcDbFaceRecord
 10
0.0
 20
0.0
 30
0.0
 70
   128
 71
    -1
 72
     2
 73
     3
  0
VERTEX
  5
F2
330
EC
100
AcDbEntity
  8
0
100
AcDbFaceRecord
 10
0.0
 20
0.0
 30
0.0
 70
   128
 71
    -2
 72
     1
 73
     4
  0
SEQEND
  5
F3
330
EC
100
AcDbEntity
  8
0
  0
POLYLINE
  5
F4
330
6E
100
AcDbEntity
  8
0
100
AcDbPolyFaceMesh
 66
     1
 10
0.0
 20
0.0
 30
0.0
 70
    64
 71
     4
 72
     2
  0
VERTEX
  5
F5
330
F4
100
AcDbEntity
  8
0
100
AcDbVertex
100
AcDbPolyFaceMeshVertex
 10
14.0
 20
0.75
 30
0.0
 70
   192
  0
VERTEX
  5
F6
330
F4
100
AcDbEntity
  8
0
100
AcDbVertex
100
AcDbPolyFaceMeshVertex
 10
0.0095629999999982
 20
0.0
 30
0.0
 70
   192
  0
VERTEX
  5
F7
330
F4
100
AcDbEntity
  8
0
100
AcDbVertex
100
AcDbPolyFaceMeshVertex
 10
0.0095629999999982
 20
0.7500000000000002
 30
0.0
 70
   192
  0
VERTEX
  5
F8
330
F4
100
AcDbEntity
  8
0
100
AcDbVertex
100
AcDbPolyFaceMeshVertex
 10
14.0
 20
0.0
 30
0.0
 70
   192
  0
VERTEX
  5
F9
330
F4
100
AcDbEntity
  8
0
100
AcDbFaceRecord
 10
0.0
 20
0.0
 30
0.0
 70
   128
 71
    -1
 72
     2
 73
     3
  0
VERTEX
  5
FA
330
F4
100
AcDbEntity
  8
0
100
AcDbFaceRecord
 10
0.0
 20
0.0
 30
0.0
 70
   128
 71
    -2
 72
     1
 73
     4
  0
SEQEND
  5
FB
330
F4
100
AcDbEntity
  8
0
  0
POLYLINE
  5
FC
330
6E
100
AcDbEntity
  8
0
100
AcDbPolyFaceMesh
 66
     1
 10
0.0
 20
0.0
 30
0.0
 70
    64
 71
     8
 72
     8
  0
VERTEX
  5
FD
330
FC
100
AcDbEntity
  8
0
100
AcDbVertex
100
AcDbPolyFaceMeshVertex
 10
14.0
 20
0.0
 30
0.0
 70
   192
  0
VERTEX
  5
FE
330
FC
100
AcDbEntity
  8
0
100
AcDbVertex
100
AcDbPolyFaceMeshVertex
 10
14.0
 20
0.25
 30
0.25
 70
   192
  0
VERTEX
  5
FF
330
FC
100
AcDbEntity
  8
0
100
AcDbVertex
100
AcDbPolyFaceMeshVertex
 10
14.0
 20
0.0
 30
3.0
 70
   192
  0
VERTEX
  5
100
330
FC
100
AcDbEntity
  8
0
100
AcDbVertex
100
AcDbPolyFaceMeshVertex
 10
14.0
 20
0.75
 30
0.0
 70
   192
  0
VERTEX
  5
101
330
FC
100
AcDbEntity
  8
0
100
AcDbVertex
100
AcDbPolyFaceMeshVertex
 10
14.0
 20
0.5
 30
0.25
 70
   192
  0
VERTEX
  5
102
330
FC
100
AcDbEntity
  8
0
100
AcDbVertex
100
AcDbPolyFaceMeshVertex
 10
14.0
 20
0.5
 30
2.75
 70
   192
  0
VERTEX
  5
103
330
FC
100
AcDbEntity
  8
0
100
AcDbVertex
100
AcDbPolyFaceMeshVertex
 10
14.0
 20
0.25
 30
2.75
 70
   192
  0
VERTEX
  5
104
330
FC
100
AcDbEntity
  8
0
100
AcDbVertex
100
AcDbPolyFaceMeshVertex
 10
14.0
 20
0.75
 30
3.0
 70
   192
  0
VERTEX
  5
105
330
FC
100
AcDbEntity
  8
0
100
AcDbFaceRecord
 10
0.0
 20
0.0
 30
0.0
 70
   128
 71
    -1
 72
    -2
 73
     3
  0
VERTEX
  5
106
330
FC
100
AcDbEntity
  8
0
100
AcDbFaceRecord
 10
0.0
 20
0.0
 30
0.0
 70
   128
 71
    -2
 72
     1
 73
    -4
  0
VERTEX
  5
107
330
FC
100
AcDbEntity
  8
0
100
AcDbFaceRecord
 10
0.0
 20
0.0
 30
0.0
 70
   128
 71
    -2
 72
    -4
 73
     5
  0
VERTEX
  5
108
330
FC
100
AcDbEntity
  8
0
100
AcDbFaceRecord
 10
0.0
 20
0.0
 30
0.0
 70
   128
 71
    -5
 72
    -4
 73
     6
  0
VERTEX
  5
109
330
FC
100
AcDbEntity
  8
0
100
AcDbFaceRecord
 10
0.0
 20
0.0
 30
0.0
 70
   128
 71
    -3
 72
    -7
 73
     8
  0
VERTEX
  5
10A
330
FC
100
AcDbEntity
  8
0
100
AcDbFaceRecord
 10
0.0
 20
0.0
 30
0.0
 70
   128
 71
    -7
 72
    -3
 73
     2
  0
VERTEX
  5
10B
330
FC
100
AcDbEntity
  8
0
100
AcDbFaceRecord
 10
0.0
 20
0.0
 30
0.0
 70
   128
 71
    -8
 72
     7
 73
    -6
  0
VERTEX
  5
10C
330
FC
100
AcDbEntity
  8
0
100
AcDbFaceRecord
 10
0.0
 20
0.0
 30
0.0
 70
   128
 71
    -8
 72
    -6
 73
     4
  0
SEQEND
  5
10D
330
FC
100
AcDbEntity
  8
0
  0
POLYLINE
  5
10E
330
6E
100
AcDbEntity
  8
0
100
AcDbPolyFaceMesh
 66
     1
 10
0.0
 20
0.0
 30
0.0
 70
    64
 71
     4
 72
     2
  0
VERTEX
  5
10F
330
10E
100
AcDbEntity
  8
0
100
AcDbVertex
100
AcDbPolyFaceMeshVertex
 10
14.75
 20
0.5
 30
0.25
 70
   192
  0
VERTEX
  5
110
330
10E
100
AcDbEntity
  8
0
100
AcDbVertex
100
AcDbPolyFaceMeshVertex
 10
14.75
 20
0.25
 30
2.75
 70
   192
  0
VERTEX
  5
111
330
10E
100
AcDbEntity
  8
0
100
AcDbVertex
100
AcDbPolyFaceMeshVertex
 10
14.75
 20
0.25
 30
0.25
 70
   192
  0
VERTEX
  5
112
330
10E
100
AcDbEntity
  8
0
100
AcDbVertex
100
AcDbPolyFaceMeshVertex
 10
14.75
 20
0.5
 30
2.75
 70
   192
  0
VERTEX
  5
113
330
10E
100
AcDbEntity
  8
0
100
AcDbFaceRecord
 10
0.0
 20
0.0
 30
0.0
 70
   128
 71
    -1
 72
     2
 73
     3
  0
VERTEX
  5
114
330
10E
100
AcDbEntity
  8
0
100
AcDbFaceRecord
 10
0.0
 20
0.0
 30
0.0
 70
   128
 71
    -2
 72
     1
 73
     4
  0
SEQEND
  5
115
330
10E
100
AcDbEntity
  8
0
  0
POLYLINE
  5
116
330
6E
100
AcDbEntity
  8
0
100
AcDbPolyFaceMesh
 66
     1
 10
0.0
 20
0.0
 30
0.0
 70
    64
 71
     4
 72
     2
  0
VERTEX
  5
117
330
116
100
AcDbEntity
  8
0
100
AcDbVertex
100
AcDbPolyFaceMeshVertex
 10
14.75
 20
0.25
 30
2.75
 70
   192
  0
VERTEX
  5
118
330
116
100
AcDbEntity
  8
0
100
AcDbVertex
100
AcDbPolyFaceMeshVertex
 10
14.0
 20
0.5
 30
2.75
 70
   192
  0
VERTEX
  5
119
330
116
100
AcDbEntity
  8
0
100
AcDbVertex
100
AcDbPolyFaceMeshVertex
 10
14.0
 20
0.25
 30
2.75
 70
   192
  0
VERTEX
  5
11A
330
116
100
AcDbEntity
  8
0
100
AcDbVertex
100
AcDbPolyFaceMeshVertex
 10
14.75
 20
0.5
 30
2.75
 70
   192
  0
VERTEX
  5
11B
330
116
100
AcDbEntity
  8
0
100
AcDbFaceRecord
 10
0.0
 20
0.0
 30
0.0
 70
   128
 71
    -1
 72
     2
 73
     3
  0
VERTEX
  5
11C
330
116
100
AcDbEntity
  8
0
100
AcDbFaceRecord
 10
0.0
 20
0.0
 30
0.0
 70
   128
 71
    -2
 72
     1
 73
     4
  0
SEQEND
  5
11D
330
116
100
AcDbEntity
  8
0
  0
POLYLINE
  5
11E
330
6E
100
AcDbEntity
  8
0
100
AcDbPolyFaceMesh
 66
     1
 10
0.0
 20
0.0
 30
0.0
 70
    64
 71
     4
 72
     2
  0
VERTEX
  5
11F
330
11E
100
AcDbEntity
  8
0
100
AcDbVertex
100
AcDbPolyFaceMeshVertex
 10
14.75
 20
0.25
 30
2.75
 70
   192
  0
VERTEX
  5
120
330
11E
100
AcDbEntity
  8
0
100
AcDbVertex
100
AcDbPolyFaceMeshVertex
 10
14.0
 20
0.25
 30
0.25
 70
   192
  0
VERTEX
  5
121
330
11E
100
AcDbEntity
  8
0
100
AcDbVertex
100
AcDbPolyFaceMeshVertex
 10
14.75
 20
0.25
 30
0.25
 70
   192
  0
VERTEX
  5
122
330
11E
100
AcDbEntity
  8
0
100
AcDbVertex
100
AcDbPolyFaceMeshVertex
 10
14.0
 20
0.25
 30
2.75
 70
   192
  0
VERTEX
  5
123
330
11E
100
AcDbEntity
  8
0
100
AcDbFaceRecord
 10
0.0
 20
0.0
 30
0.0
 70
   128
 71
    -1
 72
     2
 73
     3
  0
VERTEX
  5
124
330
11E
100
AcDbEntity
  8
0
100
AcDbFaceRecord
 10
0.0
 20
0.0
 30
0.0
 70
   128
 71
    -2
 72
     1
 73
     4
  0
SEQEND
  5
125
330
11E
100
AcDbEntity
  8
0
  0
POLYLINE
  5
126
330
6E
100
AcDbEntity
  8
0
100
AcDbPolyFaceMesh
 66
     1
 10
0.0
 20
0.0
 30
0.0
 70
    64
 71
     4
 72
     2
  0
VERTEX
  5
127
330
126
100
AcDbEntity
  8
0
100
AcDbVertex
100
AcDbPolyFaceMeshVertex
 10
14.75
 20
0.5
 30
0.25
 70
   192
  0
VERTEX
  5
128
330
126
100
AcDbEntity
  8
0
100
AcDbVertex
100
AcDbPolyFaceMeshVertex
 10
14.0
 20
0.25
 30
0.25
 70
   192
  0
VERTEX
  5
129
330
126
100
AcDbEntity
  8
0
100
AcDbVertex
100
AcDbPolyFaceMeshVertex
 10
14.0
 20
0.5
 30
0.25
 70
   192
  0
VERTEX
  5
12A
330
126
100
AcDbEntity
  8
0
100
AcDbVertex
100
AcDbPolyFaceMeshVertex
 10
14.75
 20
0.25
 30
0.25
 70
   192
  0
VERTEX
  5
12B
330
126
100
AcDbEntity
  8
0
100
AcDbFaceRecord
 10
0.0
 20
0.0
 30
0.0
 70
   128
 71
    -1
 72
     2
 73
     3
  0
VERTEX
  5
12C
330
126
100
AcDbEntity
  8
0
100
AcDbFaceRecord
 10
0.0
 20
0.0
 30
0.0
 70
   128
 71
    -2
 72
     1
 73
     4
  0
SEQEND
  5
12D
330
126
100
AcDbEntity
  8
0
  0
POLYLINE
  5
12E
330
6E
100
AcDbEntity
  8
0
100
AcDbPolyFaceMesh
 66
     1
 10
0.0
 20
0.0
 30
0.0
 70
    64
 71
     4
 72
     2
  0
VERTEX
  5
12F
330
12E
100
AcDbEntity
  8
0
100
AcDbVertex
100
AcDbPolyFaceMeshVertex
 10
14.0
 20
0.5
 30
2.75
 70
   192
  0
VERTEX
  5
130
330
12E
100
AcDbEntity
  8
0
100
AcDbVertex
100
AcDbPolyFaceMeshVertex
 10
14.75
 20
0.5
 30
0.25
 70
   192
  0
VERTEX
  5
131
330
12E
100
AcDbEntity
  8
0
100
AcDbVertex
100
AcDbPolyFaceMeshVertex
 10
14.0
 20
0.5
 30
0.25
 70
   192
  0
VERTEX
  5
132
330
12E
100
AcDbEntity
  8
0
100
AcDbVertex
100
AcDbPolyFaceMeshVertex
 10
14.75
 20
0.5
 30
2.75
 70
   192
  0
VERTEX
  5
133
330
12E
100
AcDbEntity
  8
0
100
AcDbFaceRecord
 10
0.0
 20
0.0
 30
0.0
 70
   128
 71
    -1
 72
     2
 73
     3
  0
VERTEX
  5
134
330
12E
100
AcDbEntity
  8
0
100
AcDbFaceRecord
 10
0.0
 20
0.0
 30
0.0
 70
   128
 71
    -2
 72
     1
 73
     4
  0
SEQEND
  5
135
330
12E
100
AcDbEntity
  8
0
  0
POLYLINE
  5
136
330
6E
100
AcDbEntity
  8
0
100
AcDbPolyFaceMesh
 66
     1
 10
0.0
 20
0.0
 30
0.0
 70
    64
 71
     4
 72
     2
  0
VERTEX
  5
137
330
136
100
AcDbEntity
  8
0
100
AcDbVertex
100
AcDbPolyFaceMeshVertex
 10
0.0
 20
0.75
 30
3.0
 70
   192
  0
VERTEX
  5
138
330
136
100
AcDbEntity
  8
0
100
AcDbVertex
100
AcDbPolyFaceMeshVertex
 10
0.0
 20
0.0
 30
0.0
 70
   192
  0
VERTEX
  5
139
330
136
100
AcDbEntity
  8
0
100
AcDbVertex
100
AcDbPolyFaceMeshVertex
 10
0.0
 20
0.0
 30
3.0
 70
   192
  0
VERTEX
  5
13A
330
136
100
AcDbEntity
  8
0
100
AcDbVertex
100
AcDbPolyFaceMeshVertex
 10
0.0
 20
0.75
 30
0.0
 70
   192
  0
VERTEX
  5
13B
330
136
100
AcDbEntity
  8
0
100
AcDbFaceRecord
 10
0.0
 20
0.0
 30
0.0
 70
   128
 71
    -1
 72
     2
 73
     3
  0
VERTEX
  5
13C
330
136
100
AcDbEntity
  8
0
100
AcDbFaceRecord
 10
0.0
 20
0.0
 30
0.0
 70
   128
 71
    -2
 72
     1
 73
     4
  0
SEQEND
  5
13D
330
136
100
AcDbEntity
  8
0
  0
POLYLINE
  5
13E
330
6E
100
AcDbEntity
  8
0
100
AcDbPolyFaceMesh
 66
     1
 10
0.0
 20
0.0
 30
0.0
 70
    64
 71
     8
 72
     8
  0
VERTEX
  5
13F
330
13E
100
AcDbEntity
  8
0
100
AcDbVertex
100
AcDbPolyFaceMeshVertex
 10
0.0095629999999982
 20
0.0
 30
3.0
 70
   192
  0
VERTEX
  5
140
330
13E
100
AcDbEntity
  8
0
100
AcDbVertex
100
AcDbPolyFaceMeshVertex
 10
0.0095629999999982
 20
0.25
 30
2.75
 70
   192
  0
VERTEX
  5
141
330
13E
100
AcDbEntity
  8
0
100
AcDbVertex
100
AcDbPolyFaceMeshVertex
 10
0.0095629999999982
 20
0.0
 30
0.0
 70
   192
  0
VERTEX
  5
142
330
13E
100
AcDbEntity
  8
0
100
AcDbVertex
100
AcDbPolyFaceMeshVertex
 10
0.0095629999999982
 20
0.7500000000000002
 30
3.0
 70
   192
  0
VERTEX
  5
143
330
13E
100
AcDbEntity
  8
0
100
AcDbVertex
100
AcDbPolyFaceMeshVertex
 10
0.0095629999999982
 20
0.5
 30
2.75
 70
   192
  0
VERTEX
  5
144
330
13E
100
AcDbEntity
  8
0
100
AcDbVertex
100
AcDbPolyFaceMeshVertex
 10
0.0095629999999982
 20
0.5
 30
0.25
 70
   192
  0
VERTEX
  5
145
330
13E
100
AcDbEntity
  8
0
100
AcDbVertex
100
AcDbPolyFaceMeshVertex
 10
0.0095629999999982
 20
0.25
 30
0.25
 70
   192
  0
VERTEX
  5
146
330
13E
100
AcDbEntity
  8
0
100
AcDbVertex
100
AcDbPolyFaceMeshVertex
 10
0.0095629999999982
 20
0.7500000000000002
 30
0.0
 70
   192
  0
VERTEX
  5
147
330
13E
100
AcDbEntity
  8
0
100
AcDbFaceRecord
 10
0.0
 20
0.0
 30
0.0
 70
   128
 71
    -1
 72
    -2
 73
     3
  0
VERTEX
  5
148
330
13E
100
AcDbEntity
  8
0
100
AcDbFaceRecord
 10
0.0
 20
0.0
 30
0.0
 70
   128
 71
    -2
 72
     1
 73
    -4
  0
VERTEX
  5
149
330
13E
100
AcDbEntity
  8
0
100
AcDbFaceRecord
 10
0.0
 20
0.0
 30
0.0
 70
   128
 71
    -2
 72
    -4
 73
     5
  0
VERTEX
  5
14A
330
13E
100
AcDbEntity
  8
0
100
AcDbFaceRecord
 10
0.0
 20
0.0
 30
0.0
 70
   128
 71
    -5
 72
    -4
 73
     6
  0
VERTEX
  5
14B
330
13E
100
AcDbEntity
  8
0
100
AcDbFaceRecord
 10
0.0
 20
0.0
 30
0.0
 70
   128
 71
    -3
 72
    -7
 73
     8
  0
VERTEX
  5
14C
330
13E
100
AcDbEntity
  8
0
100
AcDbFaceRecord
 10
0.0
 20
0.0
 30
0.0
 70
   128
 71
    -7
 72
    -3
 73
     2
  0
VERTEX
  5
14D
330
13E
100
AcDbEntity
  8
0
100
AcDbFaceRecord
 10
0.0
 20
0.0
 30
0.0
 70
   128
 71
    -8
 72
     7
 73
    -6
  0
VERTEX
  5
14E
330
13E
100
AcDbEntity
  8
0
100
AcDbFaceRecord
 10
0.0
 20
0.0
 30
0.0
 70
   128
 71
    -8
 72
    -6
 73
     4
  0
SEQEND
  5
14F
330
13E
100
AcDbEntity
  8
0
  0
POLYLINE
  5
150
330
6E
100
AcDbEntity
  8
0
100
AcDbPolyFaceMesh
 66
     1
 10
0.0
 20
0.0
 30
0.0
 70
    64
 71
     4
 72
     2
  0
VERTEX
  5
151
330
150
100
AcDbEntity
  8
0
100
AcDbVertex
100
AcDbPolyFaceMeshVertex
 10
0.0095629999999982
 20
0.5
 30
0.25
 70
   192
  0
VERTEX
  5
152
330
150
100
AcDbEntity
  8
0
100
AcDbVertex
100
AcDbPolyFaceMeshVertex
 10
-0.7404370000000009
 20
0.25
 30
0.25
 70
   192
  0
VERTEX
  5
153
330
150
100
AcDbEntity
  8
0
100
AcDbVertex
100
AcDbPolyFaceMeshVertex
 10
-0.7404370000000009
 20
0.5
 30
0.25
 70
   192
  0
VERTEX
  5
154
330
150
100
AcDbEntity
  8
0
100
AcDbVertex
100
AcDbPolyFaceMeshVertex
 10
0.0095629999999982
 20
0.25
 30
0.25
 70
   192
  0
VERTEX
  5
155
330
150
100
AcDbEntity
  8
0
100
AcDbFaceRecord
 10
0.0
 20
0.0
 30
0.0
 70
   128
 71
    -1
 72
     2
 73
     3
  0
VERTEX
  5
156
330
150
100
AcDbEntity
  8
0
100
AcDbFaceRecord
 10
0.0
 20
0.0
 30
0.0
 70
   128
 71
    -2
 72
     1
 73
     4
  0
SEQEND
  5
157
330
150
100
AcDbEntity
  8
0
  0
POLYLINE
  5
158
330
6E
100
AcDbEntity
  8
0
100
AcDbPolyFaceMesh
 66
     1
 10
0.0
 20
0.0
 30
0.0
 70
    64
 71
     4
 72
     2
  0
VERTEX
  5
159
330
158
100
AcDbEntity
  8
0
100
AcDbVertex
100
AcDbPolyFaceMeshVertex
 10
-0.7404370000000009
 20
0.5
 30
2.75
 70
   192
  0
VERTEX
  5
15A
330
158
100
AcDbEntity
  8
0
100
AcDbVertex
100
AcDbPolyFaceMeshVertex
 10
-0.7404370000000009
 20
0.25
 30
0.25
 70
   192
  0
VERTEX
  5
15B
330
158
100
AcDbEntity
  8
0
100
AcDbVertex
100
AcDbPolyFaceMeshVertex
 10
-0.7404370000000009
 20
0.25
 30
2.75
 70
   192
  0
VERTEX
  5
15C
330
158
100
AcDbEntity
  8
0
100
AcDbVertex
100
AcDbPolyFaceMeshVertex
 10
-0.7404370000000009
 20
0.5
 30
0.25
 70
   192
  0
VERTEX
  5
15D
330
158
100
AcDbEntity
  8
0
100
AcDbFaceRecord
 10
0.0
 20
0.0
 30
0.0
 70
   128
 71
    -1
 72
     2
 73
     3
  0
VERTEX
  5
15E
330
158
100
AcDbEntity
  8
0
100
AcDbFaceRecord
 10
0.0
 20
0.0
 30
0.0
 70
   128
 71
    -2
 72
     1
 73
     4
  0
SEQEND
  5
15F
330
158
100
AcDbEntity
  8
0
  0
POLYLINE
  5
160
330
6E
100
AcDbEntity
  8
0
100
AcDbPolyFaceMesh
 66
     1
 10
0.0
 20
0.0
 30
0.0
 70
    64
 71
     4
 72
     2
  0
VERTEX
  5
161
330
160
100
AcDbEntity
  8
0
100
AcDbVertex
100
AcDbPolyFaceMeshVertex
 10
-0.7404370000000009
 20
0.5
 30
2.75
 70
   192
  0
VERTEX
  5
162
330
160
100
AcDbEntity
  8
0
100
AcDbVertex
100
AcDbPolyFaceMeshVertex
 10
0.0095629999999982
 20
0.5
 30
0.25
 70
   192
  0
VERTEX
  5
163
330
160
100
AcDbEntity
  8
0
100
AcDbVertex
100
AcDbPolyFaceMeshVertex
 10
-0.7404370000000009
 20
0.5
 30
0.25
 70
   192
  0
VERTEX
  5
164
330
160
100
AcDbEntity
  8
0
100
AcDbVertex
100
AcDbPolyFaceMeshVertex
 10
0.0095629999999982
 20
0.5
 30
2.75
 70
   192
  0
VERTEX
  5
165
330
160
100
AcDbEntity
  8
0
100
AcDbFaceRecord
 10
0.0
 20
0.0
 30
0.0
 70
   128
 71
    -1
 72
     2
 73
     3
  0
VERTEX
  5
166
330
160
100
AcDbEntity
  8
0
100
AcDbFaceRecord
 10
0.0
 20
0.0
 30
0.0
 70
   128
 71
    -2
 72
     1
 73
     4
  0
SEQEND
  5
167
330
160
100
AcDbEntity
  8
0
  0
POLYLINE
  5
168
330
6E
100
AcDbEntity
  8
0
100
AcDbPolyFaceMesh
 66
     1
 10
0.0
 20
0.0
 30
0.0
 70
    64
 71
     4
 72
     2
  0
VERTEX
  5
169
330
168
100
AcDbEntity
  8
0
100
AcDbVertex
100
AcDbPolyFaceMeshVertex
 10
0.0095629999999982
 20
0.25
 30
2.75
 70
   192
  0
VERTEX
  5
16A
330
168
100
AcDbEntity
  8
0
100
AcDbVertex
100
AcDbPolyFaceMeshVertex
 10
-0.7404370000000009
 20
0.5
 30
2.75
 70
   192
  0
VERTEX
  5
16B
330
168
100
AcDbEntity
  8
0
100
AcDbVertex
100
AcDbPolyFaceMeshVertex
 10
-0.7404370000000009
 20
0.25
 30
2.75
 70
   192
  0
VERTEX
  5
16C
330
168
100
AcDbEntity
  8
0
100
AcDbVertex
100
AcDbPolyFaceMeshVertex
 10
0.0095629999999982
 20
0.5
 30
2.75
 70
   192
  0
VERTEX
  5
16D
330
168
100
AcDbEntity
  8
0
100
AcDbFaceRecord
 10
0.0
 20
0.0
 30
0.0
 70
   128
 71
    -1
 72
     2
 73
     3
  0
VERTEX
  5
16E
330
168
100
AcDbEntity
  8
0
100
AcDbFaceRecord
 10
0.0
 20
0.0
 30
0.0
 70
   128
 71
    -2
 72
     1
 73
     4
  0
SEQEND
  5
16F
330
168
100
AcDbEntity
  8
0
  0
POLYLINE
  5
170
330
6E
100
AcDbEntity
  8
0
100
AcDbPolyFaceMesh
 66
     1
 10
0.0
 20
0.0
 30
0.0
 70
    64
 71
     4
 72
     2
  0
VERTEX
  5
171
330
170
100
AcDbEntity
  8
0
100
AcDbVertex
100
AcDbPolyFaceMeshVertex
 10
0.0095629999999982
 20
0.25
 30
2.75
 70
   192
  0
VERTEX
  5
172
330
170
100
AcDbEntity
  8
0
100
AcDbVertex
100
AcDbPolyFaceMeshVertex
 10
-0.7404370000000009
 20
0.25
 30
0.25
 70
   192
  0
VERTEX
  5
173
330
170
100
AcDbEntity
  8
0
100
AcDbVertex
100
AcDbPolyFaceMeshVertex
 10
0.0095629999999982
 20
0.25
 30
0.25
 70
   192
  0
VERTEX
  5
174
330
170
100
AcDbEntity
  8
0
100
AcDbVertex
100
AcDbPolyFaceMeshVertex
 10
-0.7404370000000009
 20
0.25
 30
2.75
 70
   192
  0
VERTEX
  5
175
330
170
100
AcDbEntity
  8
0
100
AcDbFaceRecord
 10
0.0
 20
0.0
 30
0.0
 70
   128
 71
    -1
 72
     2
 73
     3
  0
VERTEX
  5
176
330
170
100
AcDbEntity
  8
0
100
AcDbFaceRecord
 10
0.0
 20
0.0
 30
0.0
 70
   128
 71
    -2
 72
     1
 73
     4
  0
SEQEND
  5
177
330
170
100
AcDbEntity
  8
0
  0
POLYLINE
  5
178
330
6E
100
AcDbEntity
  8
0
100
AcDbPolyFaceMesh
 66
     1
 10
0.0
 20
0.0
 30
0.0
 70
    64
 71
     4
 72
     2
  0
VERTEX
  5
179
330
178
100
AcDbEntity
  8
0
100
AcDbVertex
100
AcDbPolyFaceMeshVertex
 10
0.0095629999999982
 20
0.0
 30
3.0
 70
   192
  0
VERTEX
  5
17A
330
178
100
AcDbEntity
  8
0
100
AcDbVertex
100
AcDbPolyFaceMeshVertex
 10
0.0
 20
0.0
 30
0.0
 70
   192
  0
VERTEX
  5
17B
330
178
100
AcDbEntity
  8
0
100
AcDbVertex
100
AcDbPolyFaceMeshVertex
 10
0.0095629999999982
 20
0.0
 30
0.0
 70
   192
  0
VERTEX
  5
17C
330
178
100
AcDbEntity
  8
0
100
AcDbVertex
100
AcDbPolyFaceMeshVertex
 10
0.0
 20
0.0
 30
3.0
 70
   192
  0
VERTEX
  5
17D
330
178
100
AcDbEntity
  8
0
100
AcDbFaceRecord
 10
0.0
 20
0.0
 30
0.0
 70
   128
 71
    -1
 72
     2
 73
     3
  0
VERTEX
  5
17E
330
178
100
AcDbEntity
  8
0
100
AcDbFaceRecord
 10
0.0
 20
0.0
 30
0.0
 70
   128
 71
    -2
 72
     1
 73
     4
  0
SEQEND
  5
17F
330
178
100
AcDbEntity
  8
0
  0
POLYLINE
  5
180
330
6E
100
AcDbEntity
  8
0
100
AcDbPolyFaceMesh
 66
     1
 10
0.0
 20
0.0
 30
0.0
 70
    64
 71
     4
 72
     2
  0
VERTEX
  5
181
330
180
100
AcDbEntity
  8
0
100
AcDbVertex
100
AcDbPolyFaceMeshVertex
 10
0.0095629999999982
 20
0.7500000000000002
 30
0.0
 70
   192
  0
VERTEX
  5
182
330
180
100
AcDbEntity
  8
0
100
AcDbVertex
100
AcDbPolyFaceMeshVertex
 10
0.0
 20
0.0
 30
0.0
 70
   192
  0
VERTEX
  5
183
330
180
100
AcDbEntity
  8
0
100
AcDbVertex
100
AcDbPolyFaceMeshVertex
 10
0.0
 20
0.75
 30
0.0
 70
   192
  0
VERTEX
  5
184
330
180
100
AcDbEntity
  8
0
100
AcDbVertex
100
AcDbPolyFaceMeshVertex
 10
0.0095629999999982
 20
0.0
 30
0.0
 70
   192
  0
VERTEX
  5
185
330
180
100
AcDbEntity
  8
0
100
AcDbFaceRecord
 10
0.0
 20
0.0
 30
0.0
 70
   128
 71
    -1
 72
     2
 73
     3
  0
VERTEX
  5
186
330
180
100
AcDbEntity
  8
0
100
AcDbFaceRecord
 10
0.0
 20
0.0
 30
0.0
 70
   128
 71
    -2
 72
     1
 73
     4
  0
SEQEND
  5
187
330
180
100
AcDbEntity
  8
0
  0
POLYLINE
  5
188
330
6E
100
AcDbEntity
  8
0
100
AcDbPolyFaceMesh
 66
     1
 10
0.0
 20
0.0
 30
0.0
 70
    64
 71
     4
 72
     2
  0
VERTEX
  5
189
330
188
100
AcDbEntity
  8
0
100
AcDbVertex
100
AcDbPolyFaceMeshVertex
 10
0.0095629999999982
 20
0.7500000000000002
 30
3.0
 70
   192
  0
VERTEX
  5
18A
330
188
100
AcDbEntity
  8
0
100
AcDbVertex
100
AcDbPolyFaceMeshVertex
 10
14.0
 20
0.75
 30
0.0
 70
   192
  0
VERTEX
  5
18B
330
188
100
AcDbEntity
  8
0
100
AcDbVertex
100
AcDbPolyFaceMeshVertex
 10
0.0095629999999982
 20
0.7500000000000002
 30
0.0
 70
   192
  0
VERTEX
  5
18C
330
188
100
AcDbEntity
  8
0
100
AcDbVertex
100
AcDbPolyFaceMeshVertex
 10
14.0
 20
0.75
 30
3.0
 70
   192
  0
VERTEX
  5
18D
330
188
100
AcDbEntity
  8
0
100
AcDbFaceRecord
 10
0.0
 20
0.0
 30
0.0
 70
   128
 71
    -1
 72
     2
 73
     3
  0
VERTEX
  5
18E
330
188
100
AcDbEntity
  8
0
100
AcDbFaceRecord
 10
0.0
 20
0.0
 30
0.0
 70
   128
 71
    -2
 72
     1
 73
     4
  0
SEQEND
  5
18F
330
188
100
AcDbEntity
  8
0
  0
POLYLINE
  5
190
330
6E
100
AcDbEntity
  8
0
100
AcDbPolyFaceMesh
 66
     1
 10
0.0
 20
0.0
 30
0.0
 70
    64
 71
     4
 72
     2
  0
VERTEX
  5
191
330
190
100
AcDbEntity
  8
0
100
AcDbVertex
100
AcDbPolyFaceMeshVertex
 10
14.0
 20
0.0
 30
3.0
 70
   192
  0
VERTEX
  5
192
330
190
100
AcDbEntity
  8
0
100
AcDbVertex
100
AcDbPolyFaceMeshVertex
 10
0.0095629999999982
 20
0.7500000000000002
 30
3.0
 70
   192
  0
VERTEX
  5
193
330
190
100
AcDbEntity
  8
0
100
AcDbVertex
100
AcDbPolyFaceMeshVertex
 10
0.0095629999999982
 20
0.0
 30
3.0
 70
   192
  0
VERTEX
  5
194
330
190
100
AcDbEntity
  8
0
100
AcDbVertex
100
AcDbPolyFaceMeshVertex
 10
14.0
 20
0.75
 30
3.0
 70
   192
  0
VERTEX
  5
195
330
190
100
AcDbEntity
  8
0
100
AcDbFaceRecord
 10
0.0
 20
0.0
 30
0.0
 70
   128
 71
    -1
 72
     2
 73
     3
  0
VERTEX
  5
196
330
190
100
AcDbEntity
  8
0
100
AcDbFaceRecord
 10
0.0
 20
0.0
 30
0.0
 70
   128
 71
    -2
 72
     1
 73
     4
  0
SEQEND
  5
197
330
190
100
AcDbEntity
  8
0
  0
ENDBLK
  5
70
330
6E
100
AcDbEntity
  8
0
100
AcDbBlockEnd
  0
BLOCK
  5
72
330
71
100
AcDbEntity
  8
0
100
AcDbBlockBegin
  2
LEG
 70
     0
 10
0.0
 20
0.0
 30
0.0
  3
LEG
  1
LEG
  0
LINE
  5
198
330
71
100
AcDbEntity
  8
0
100
AcDbLine
 10
0.0
 20
2.0
 30
20.0
 11
0.0
 21
0.0
 31
20.0
  0
LINE
  5
199
330
71
100
AcDbEntity
  8
0
100
AcDbLine
 10
0.0
 20
0.0
 30
20.0
 11
2.0
 21
0.0
 31
20.0
  0
LINE
  5
19A
330
71
100
AcDbEntity
  8
0
100
AcDbLine
 10
1.5
 20
0.5
 30
0.0
 11
2.0
 21
0.0
 31
20.0
  0
LINE
  5
19B
330
71
100
AcDbEntity
  8
0
100
AcDbLine
 10
0.5
 20
0.4999999999999999
 30
0.0
 11
1.5
 21
0.5
 31
0.0
  0
LINE
  5
19C
330
71
100
AcDbEntity
  8
0
100
AcDbLine
 10
1.5
 20
1.5
 30
0.0
 11
2.0
 21
2.0
 31
20.0
  0
LINE
  5
19D
330
71
100
AcDbEntity
  8
0
100
AcDbLine
 10
0.5
 20
1.5
 30
0.0
 11
0.0
 21
2.0
 31
20.0
  0
LINE
  5
19E
330
71
100
AcDbEntity
  8
0
100
AcDbLine
 10
2.0
 20
2.0
 30
24.0
 11
0.0
 21
2.0
 31
24.0
  0
LINE
  5
19F
330
71
100
AcDbEntity
  8
0
100
AcDbLine
 10
2.0
 20
0.0
 30
20.0
 11
2.0
 21
2.0
 31
20.0
  0
LINE
  5
1A0
330
71
100
AcDbEntity
  8
0
100
AcDbLine
 10
0.0
 20
2.0
 30
20.0
 11
0.0
 21
2.0
 31
24.0
  0
LINE
  5
1A1
330
71
100
AcDbEntity
  8
0
100
AcDbLine
 10
1.5
 20
1.5
 30
0.0
 11
0.5
 21
1.5
 31
0.0
  0
LINE
  5
1A2
330
71
100
AcDbEntity
  8
0
100
AcDbLine
 10
0.0
 20
0.0
 30
20.0
 11
0.0
 21
0.0
 31
24.0
  0
LINE
  5
1A3
330
71
100
AcDbEntity
  8
0
100
AcDbLine
 10
0.5
 20
1.5
 30
0.0
 11
0.5
 21
0.4999999999999999
 31
0.0
  0
LINE
  5
1A4
330
71
100
AcDbEntity
  8
0
100
AcDbLine
 10
0.5
 20
0.4999999999999999
 30
0.0
 11
0.0
 21
0.0
 31
20.0
  0
LINE
  5
1A5
330
71
100
AcDbEntity
  8
0
100
AcDbLine
 10
2.009562999999998
 20
0.875
 30
23.75
 11
2.009562999999998
 21
0.875
 31
21.25
  0
LINE
  5
1A6
330
71
100
AcDbEntity
  8
0
100
AcDbLine
 10
2.009562999999998
 20
1.125
 30
23.75
 11
2.009562999999998
 21
0.875
 31
23.75
  0
LINE
  5
1A7
330
71
100
AcDbEntity
  8
0
100
AcDbLine
 10
2.009562999999998
 20
0.875
 30
21.25
 11
2.009562999999998
 21
1.125
 31
21.25
  0
LINE
  5
1A8
330
71
100
AcDbEntity
  8
0
100
AcDbLine
 10
2.009562999999998
 20
1.125
 30
21.25
 11
2.009562999999998
 21
1.125
 31
23.75
  0
LINE
  5
1A9
330
71
100
AcDbEntity
  8
0
100
AcDbLine
 10
2.0
 20
2.0
 30
20.0
 11
2.0
 21
2.0
 31
24.0
  0
LINE
  5
1AA
330
71
100
AcDbEntity
  8
0
100
AcDbLine
 10
2.0
 20
0.0
 30
24.0
 11
2.0
 21
2.0
 31
24.0
  0
LINE
  5
1AB
330
71
100
AcDbEntity
  8
0
100
AcDbLine
 10
2.0
 20
0.0
 30
20.0
 11
2.0
 21
0.0
 31
24.0
  0
LINE
  5
1AC
330
71
100
AcDbEntity
  8
0
100
AcDbLine
 10
2.0
 20
2.0
 30
20.0
 11
0.0
 21
2.0
 31
20.0
  0
LINE
  5
1AD
330
71
100
AcDbEntity
  8
0
100
AcDbLine
 10
1.259563
 20
1.125
 30
21.25
 11
1.259563
 21
1.125
 31
23.75
  0
LINE
  5
1AE
330
71
100
AcDbEntity
  8
0
100
AcDbLine
 10
1.259563
 20
1.125
 30
23.75
 11
1.259563
 21
0.875
 31
23.75
  0
LINE
  5
1AF
330
71
100
AcDbEntity
  8
0
100
AcDbLine
 10
1.259563
 20
0.875
 30
23.75
 11
1.259563
 21
0.875
 31
21.25
  0
LINE
  5
1B0
330
71
100
AcDbEntity
  8
0
100
AcDbLine
 10
1.259563
 20
0.875
 30
21.25
 11
1.259563
 21
1.125
 31
21.25
  0
LINE
  5
1B1
330
71
100
AcDbEntity
  8
0
100
AcDbLine
 10
2.009562999999998
 20
1.125
 30
23.75
 11
1.259563
 21
1.125
 31
23.75
  0
LINE
  5
1B2
330
71
100
AcDbEntity
  8
0
100
AcDbLine
 10
2.009562999999998
 20
1.125
 30
21.25
 11
1.259563
 21
1.125
 31
21.25
  0
LINE
  5
1B3
330
71
100
AcDbEntity
  8
0
100
AcDbLine
 10
2.009562999999998
 20
0.875
 30
23.75
 11
1.259563
 21
0.875
 31
23.75
  0
LINE
  5
1B4
330
71
100
AcDbEntity
  8
0
100
AcDbLine
 10
2.009562999999998
 20
0.875
 30
21.25
 11
1.259563
 21
0.875
 31
21.25
  0
LINE
  5
1B5
330
71
100
AcDbEntity
  8
0
100
AcDbLine
 10
1.124999999999996
 20
2.000000000000004
 30
21.25
 11
1.124999999999996
 21
2.000000000000004
 31
23.75
  0
LINE
  5
1B6
330
71
100
AcDbEntity
  8
0
100
AcDbLine
 10
1.124999999999996
 20
2.000000000000004
 30
23.75
 11
0.8749999999999964
 21
2.000000000000004
 31
23.75
  0
LINE
  5
1B7
330
71
100
AcDbEntity
  8
0
100
AcDbLine
 10
0.8749999999999964
 20
2.000000000000004
 30
23.75
 11
0.8749999999999964
 21
2.000000000000004
 31
21.25
  0
LINE
  5
1B8
330
71
100
AcDbEntity
  8
0
100
AcDbLine
 10
0.8749999999999964
 20
2.000000000000004
 30
21.25
 11
1.124999999999996
 21
2.000000000000004
 31
21.25
  0
LINE
  5
1B9
330
71
100
AcDbEntity
  8
0
100
AcDbLine
 10
1.124999999999996
 20
1.250000000000004
 30
23.75
 11
0.8749999999999964
 21
1.249999999999996
 31
23.75
  0
LINE
  5
1BA
330
71
100
AcDbEntity
  8
0
100
AcDbLine
 10
1.124999999999996
 20
1.250000000000004
 30
21.25
 11
1.124999999999996
 21
1.250000000000004
 31
23.75
  0
LINE
  5
1BB
330
71
100
AcDbEntity
  8
0
100
AcDbLine
 10
0.8749999999999964
 20
1.249999999999996
 30
21.25
 11
1.124999999999996
 21
1.250000000000004
 31
21.25
  0
LINE
  5
1BC
330
71
100
AcDbEntity
  8
0
100
AcDbLine
 10
0.8749999999999964
 20
1.249999999999996
 30
23.75
 11
0.8749999999999964
 21
1.249999999999996
 31
21.25
  0
LINE
  5
1BD
330
71
100
AcDbEntity
  8
0
100
AcDbLine
 10
1.124999999999996
 20
2.000000000000004
 30
23.75
 11
1.124999999999996
 21
1.250000000000004
 31
23.75
  0
LINE
  5
1BE
330
71
100
AcDbEntity
  8
0
100
AcDbLine
 10
0.8749999999999964
 20
2.000000000000004
 30
23.75
 11
0.8749999999999964
 21
1.249999999999996
 31
23.75
  0
LINE
  5
1BF
330
71
100
AcDbEntity
  8
0
100
AcDbLine
 10
1.124999999999996
 20
2.000000000000004
 30
21.25
 11
1.124999999999996
 21
1.250000000000004
 31
21.25
  0
LINE
  5
1C0
330
71
100
AcDbEntity
  8
0
100
AcDbLine
 10
0.8749999999999964
 20
2.000000000000004
 30
21.25
 11
0.8749999999999964
 21
1.249999999999996
 31
21.25
  0
LINE
  5
1C1
330
71
100
AcDbEntity
  8
0
100
AcDbLine
 10
1.5
 20
0.5
 30
0.0
 11
1.5
 21
1.5
 31
0.0
  0
LINE
  5
1C2
330
71
100
AcDbEntity
  8
0
100
AcDbLine
 10
0.0
 20
2.0
 30
24.0
 11
0.0
 21
0.0
 31
24.0
  0
LINE
  5
1C3
330
71
100
AcDbEntity
  8
0
100
AcDbLine
 10
0.0
 20
0.0
 30
24.0
 11
2.0
 21
0.0
 31
24.0
  0
POLYLINE
  5
1C4
330
71
100
AcDbEntity
  8
0
100
AcDbPolyFaceMesh
 66
     1
 10
0.0
 20
0.0
 30
0.0
 70
    64
 71
     4
 72
     2
  0
VERTEX
  5
1C5
330
1C4
100
AcDbEntity
  8
0
100
AcDbVertex
100
AcDbPolyFaceMeshVertex
 10
2.0
 20
0.0
 30
20.0
 70
   192
  0
VERTEX
  5
1C6
330
1C4
100
AcDbEntity
  8
0
100
AcDbVertex
100
AcDbPolyFaceMeshVertex
 10
0.5
 20
0.4999999999999999
 30
0.0
 70
   192
  0
VERTEX
  5
1C7
330
1C4
100
AcDbEntity
  8
0
100
AcDbVertex
100
AcDbPolyFaceMeshVertex
 10
1.5
 20
0.5
 30
0.0
 70
   192
  0
VERTEX
  5
1C8
330
1C4
100
AcDbEntity
  8
0
100
AcDbVertex
100
AcDbPolyFaceMeshVertex
 10
0.0
 20
0.0
 30
20.0
 70
   192
  0
VERTEX
  5
1C9
330
1C4
100
AcDbEntity
  8
0
100
AcDbFaceRecord
 10
0.0
 20
0.0
 30
0.0
 70
   128
 71
    -1
 72
     2
 73
     3
  0
VERTEX
  5
1CA
330
1C4
100
AcDbEntity
  8
0
100
AcDbFaceRecord
 10
0.0
 20
0.0
 30
0.0
 70
   128
 71
    -2
 72
     1
 73
     4
  0
SEQEND
  5
1CB
330
1C4
100
AcDbEntity
  8
0
  0
POLYLINE
  5
1CC
330
71
100
AcDbEntity
  8
0
100
AcDbPolyFaceMesh
 66
     1
 10
0.0
 20
0.0
 30
0.0
 70
    64
 71
     4
 72
     2
  0
VERTEX
  5
1CD
330
1CC
100
AcDbEntity
  8
0
100
AcDbVertex
100
AcDbPolyFaceMeshVertex
 10
2.0
 20
0.0
 30
20.0
 70
   192
  0
VERTEX
  5
1CE
330
1CC
100
AcDbEntity
  8
0
100
AcDbVertex
100
AcDbPolyFaceMeshVertex
 10
0.0
 20
2.0
 30
20.0
 70
   192
  0
VERTEX
  5
1CF
330
1CC
100
AcDbEntity
  8
0
100
AcDbVertex
100
AcDbPolyFaceMeshVertex
 10
0.0
 20
0.0
 30
20.0
 70
   192
  0
VERTEX
  5
1D0
330
1CC
100
AcDbEntity
  8
0
100
AcDbVertex
100
AcDbPolyFaceMeshVertex
 10
2.0
 20
2.0
 30
20.0
 70
   192
  0
VERTEX
  5
1D1
330
1CC
100
AcDbEntity
  8
0
100
AcDbFaceRecord
 10
0.0
 20
0.0
 30
0.0
 70
   128
 71
    -1
 72
     2
 73
     3
  0
VERTEX
  5
1D2
330
1CC
100
AcDbEntity
  8
0
100
AcDbFaceRecord
 10
0.0
 20
0.0
 30
0.0
 70
   128
 71
    -2
 72
     1
 73
     4
  0
SEQEND
  5
1D3
330
1CC
100
AcDbEntity
  8
0
  0
POLYLINE
  5
1D4
330
71
100
AcDbEntity
  8
0
100
AcDbPolyFaceMesh
 66
     1
 10
0.0
 20
0.0
 30
0.0
 70
    64
 71
     4
 72
     2
  0
VERTEX
  5
1D5
330
1D4
100
AcDbEntity
  8
0
100
AcDbVertex
100
AcDbPolyFaceMeshVertex
 10
0.0
 20
2.0
 30
20.0
 70
   192
  0
VERTEX
  5
1D6
330
1D4
100
AcDbEntity
  8
0
100
AcDbVertex
100
AcDbPolyFaceMeshVertex
 10
0.5
 20
0.4999999999999999
 30
0.0
 70
   192
  0
VERTEX
  5
1D7
330
1D4
100
AcDbEntity
  8
0
100
AcDbVertex
100
AcDbPolyFaceMeshVertex
 10
0.0
 20
0.0
 30
20.0
 70
   192
  0
VERTEX
  5
1D8
330
1D4
100
AcDbEntity
  8
0
100
AcDbVertex
100
AcDbPolyFaceMeshVertex
 10
0.5
 20
1.5
 30
0.0
 70
   192
  0
VERTEX
  5
1D9
330
1D4
100
AcDbEntity
  8
0
100
AcDbFaceRecord
 10
0.0
 20
0.0
 30
0.0
 70
   128
 71
    -1
 72
     2
 73
     3
  0
VERTEX
  5
1DA
330
1D4
100
AcDbEntity
  8
0
100
AcDbFaceRecord
 10
0.0
 20
0.0
 30
0.0
 70
   128
 71
    -2
 72
     1
 73
     4
  0
SEQEND
  5
1DB
330
1D4
100
AcDbEntity
  8
0
  0
POLYLINE
  5
1DC
330
71
100
AcDbEntity
  8
0
100
AcDbPolyFaceMesh
 66
     1
 10
0.0
 20
0.0
 30
0.0
 70
    64
 71
     4
 72
     2
  0
VERTEX
  5
1DD
330
1DC
100
AcDbEntity
  8
0
100
AcDbVertex
100
AcDbPolyFaceMeshVertex
 10
0.0
 20
2.0
 30
20.0
 70
   192
  0
VERTEX
  5
1DE
330
1DC
100
AcDbEntity
  8
0
100
AcDbVertex
100
AcDbPolyFaceMeshVertex
 10
1.5
 20
1.5
 30
0.0
 70
   192
  0
VERTEX
  5
1DF
330
1DC
100
AcDbEntity
  8
0
100
AcDbVertex
100
AcDbPolyFaceMeshVertex
 10
0.5
 20
1.5
 30
0.0
 70
   192
  0
VERTEX
  5
1E0
330
1DC
100
AcDbEntity
  8
0
100
AcDbVertex
100
AcDbPolyFaceMeshVertex
 10
2.0
 20
2.0
 30
20.0
 70
   192
  0
VERTEX
  5
1E1
330
1DC
100
AcDbEntity
  8
0
100
AcDbFaceRecord
 10
0.0
 20
0.0
 30
0.0
 70
   128
 71
    -1
 72
     2
 73
     3
  0
VERTEX
  5
1E2
330
1DC
100
AcDbEntity
  8
0
100
AcDbFaceRecord
 10
0.0
 20
0.0
 30
0.0
 70
   128
 71
    -2
 72
     1
 73
     4
  0
SEQEND
  5
1E3
330
1DC
100
AcDbEntity
  8
0
  0
POLYLINE
  5
1E4
330
71
100
AcDbEntity
  8
0
100
AcDbPolyFaceMesh
 66
     1
 10
0.0
 20
0.0
 30
0.0
 70
    64
 71
     4
 72
     2
  0
VERTEX
  5
1E5
330
1E4
100
AcDbEntity
  8
0
100
AcDbVertex
100
AcDbPolyFaceMeshVertex
 10
1.5
 20
0.5
 30
0.0
 70
   192
  0
VERTEX
  5
1E6
330
1E4
100
AcDbEntity
  8
0
100
AcDbVertex
100
AcDbPolyFaceMeshVertex
 10
2.0
 20
2.0
 30
20.0
 70
   192
  0
VERTEX
  5
1E7
330
1E4
100
AcDbEntity
  8
0
100
AcDbVertex
100
AcDbPolyFaceMeshVertex
 10
2.0
 20
0.0
 30
20.0
 70
   192
  0
VERTEX
  5
1E8
330
1E4
100
AcDbEntity
  8
0
100
AcDbVertex
100
AcDbPolyFaceMeshVertex
 10
1.5
 20
1.5
 30
0.0
 70
   192
  0
VERTEX
  5
1E9
330
1E4
100
AcDbEntity
  8
0
100
AcDbFaceRecord
 10
0.0
 20
0.0
 30
0.0
 70
   128
 71
    -1
 72
     2
 73
     3
  0
VERTEX
  5
1EA
330
1E4
100
AcDbEntity
  8
0
100
AcDbFaceRecord
 10
0.0
 20
0.0
 30
0.0
 70
   128
 71
    -2
 72
     1
 73
     4
  0
SEQEND
  5
1EB
330
1E4
100
AcDbEntity
  8
0
  0
POLYLINE
  5
1EC
330
71
100
AcDbEntity
  8
0
100
AcDbPolyFaceMesh
 66
     1
 10
0.0
 20
0.0
 30
0.0
 70
    64
 71
     4
 72
     2
  0
VERTEX
  5
1ED
330
1EC
100
AcDbEntity
  8
0
100
AcDbVertex
100
AcDbPolyFaceMeshVertex
 10
0.0
 20
2.0
 30
24.0
 70
   192
  0
VERTEX
  5
1EE
330
1EC
100
AcDbEntity
  8
0
100
AcDbVertex
100
AcDbPolyFaceMeshVertex
 10
0.0
 20
0.0
 30
20.0
 70
   192
  0
VERTEX
  5
1EF
330
1EC
100
AcDbEntity
  8
0
100
AcDbVertex
100
AcDbPolyFaceMeshVertex
 10
0.0
 20
0.0
 30
24.0
 70
   192
  0
VERTEX
  5
1F0
330
1EC
100
AcDbEntity
  8
0
100
AcDbVertex
100
AcDbPolyFaceMeshVertex
 10
0.0
 20
2.0
 30
20.0
 70
   192
  0
VERTEX
  5
1F1
330
1EC
100
AcDbEntity
  8
0
100
AcDbFaceRecord
 10
0.0
 20
0.0
 30
0.0
 70
   128
 71
    -1
 72
     2
 73
     3
  0
VERTEX
  5
1F2
330
1EC
100
AcDbEntity
  8
0
100
AcDbFaceRecord
 10
0.0
 20
0.0
 30
0.0
 70
   128
 71
    -2
 72
     1
 73
     4
  0
SEQEND
  5
1F3
330
1EC
100
AcDbEntity
  8
0
  0
POLYLINE
  5
1F4
330
71
100
AcDbEntity
  8
0
100
AcDbPolyFaceMesh
 66
     1
 10
0.0
 20
0.0
 30
0.0
 70
    64
 71
     4
 72
     2
  0
VERTEX
  5
1F5
330
1F4
100
AcDbEntity
  8
0
100
AcDbVertex
100
AcDbPolyFaceMeshVertex
 10
2.0
 20
0.0
 30
24.0
 70
   192
  0
VERTEX
  5
1F6
330
1F4
100
AcDbEntity
  8
0
100
AcDbVertex
100
AcDbPolyFaceMeshVertex
 10
0.0
 20
2.0
 30
24.0
 70
   192
  0
VERTEX
  5
1F7
330
1F4
100
AcDbEntity
  8
0
100
AcDbVertex
100
AcDbPolyFaceMeshVertex
 10
0.0
 20
0.0
 30
24.0
 70
   192
  0
VERTEX
  5
1F8
330
1F4
100
AcDbEntity
  8
0
100
AcDbVertex
100
AcDbPolyFaceMeshVertex
 10
2.0
 20
2.0
 30
24.0
 70
   192
  0
VERTEX
  5
1F9
330
1F4
100
AcDbEntity
  8
0
100
AcDbFaceRecord
 10
0.0
 20
0.0
 30
0.0
 70
   128
 71
    -1
 72
     2
 73
     3
  0
VERTEX
  5
1FA
330
1F4
100
AcDbEntity
  8
0
100
AcDbFaceRecord
 10
0.0
 20
0.0
 30
0.0
 70
   128
 71
    -2
 72
     1
 73
     4
  0
SEQEND
  5
1FB
330
1F4
100
AcDbEntity
  8
0
  0
POLYLINE
  5
1FC
330
71
100
AcDbEntity
  8
0
100
AcDbPolyFaceMesh
 66
     1
 10
0.0
 20
0.0
 30
0.0
 70
    64
 71
     4
 72
     2
  0
VERTEX
  5
1FD
330
1FC
100
AcDbEntity
  8
0
100
AcDbVertex
100
AcDbPolyFaceMeshVertex
 10
2.0
 20
0.0
 30
24.0
 70
   192
  0
VERTEX
  5
1FE
330
1FC
100
AcDbEntity
  8
0
100
AcDbVertex
100
AcDbPolyFaceMeshVertex
 10
0.0
 20
0.0
 30
20.0
 70
   192
  0
VERTEX
  5
1FF
330
1FC
100
AcDbEntity
  8
0
100
AcDbVertex
100
AcDbPolyFaceMeshVertex
 10
2.0
 20
0.0
 30
20.0
 70
   192
  0
VERTEX
  5
200
330
1FC
100
AcDbEntity
  8
0
100
AcDbVertex
100
AcDbPolyFaceMeshVertex
 10
0.0
 20
0.0
 30
24.0
 70
   192
  0
VERTEX
  5
201
330
1FC
100
AcDbEntity
  8
0
100
AcDbFaceRecord
 10
0.0
 20
0.0
 30
0.0
 70
   128
 71
    -1
 72
     2
 73
     3
  0
VERTEX
  5
202
330
1FC
100
AcDbEntity
  8
0
100
AcDbFaceRecord
 10
0.0
 20
0.0
 30
0.0
 70
   128
 71
    -2
 72
     1
 73
     4
  0
SEQEND
  5
203
330
1FC
100
AcDbEntity
  8
0
  0
POLYLINE
  5
204
330
71
100
AcDbEntity
  8
0
100
AcDbPolyFaceMesh
 66
     1
 10
0.0
 20
0.0
 30
0.0
 70
    64
 71
     8
 72
     8
  0
VERTEX
  5
205
330
204
100
AcDbEntity
  8
0
100
AcDbVertex
100
AcDbPolyFaceMeshVertex
 10
0.0
 20
2.0
 30
20.0
 70
   192
  0
VERTEX
  5
206
330
204
100
AcDbEntity
  8
0
100
AcDbVertex
100
AcDbPolyFaceMeshVertex
 10
0.8749999999999964
 20
2.000000000000004
 30
21.25
 70
   192
  0
VERTEX
  5
207
330
204
100
AcDbEntity
  8
0
100
AcDbVertex
100
AcDbPolyFaceMeshVertex
 10
2.0
 20
2.0
 30
20.0
 70
   192
  0
VERTEX
  5
208
330
204
100
AcDbEntity
  8
0
100
AcDbVertex
100
AcDbPolyFaceMeshVertex
 10
0.0
 20
2.0
 30
24.0
 70
   192
  0
VERTEX
  5
209
330
204
100
AcDbEntity
  8
0
100
AcDbVertex
100
AcDbPolyFaceMeshVertex
 10
0.8749999999999964
 20
2.000000000000004
 30
23.75
 70
   192
  0
VERTEX
  5
20A
330
204
100
AcDbEntity
  8
0
100
AcDbVertex
100
AcDbPolyFaceMeshVertex
 10
1.124999999999996
 20
2.000000000000004
 30
23.75
 70
   192
  0
VERTEX
  5
20B
330
204
100
AcDbEntity
  8
0
100
AcDbVertex
100
AcDbPolyFaceMeshVertex
 10
1.124999999999996
 20
2.000000000000004
 30
21.25
 70
   192
  0
VERTEX
  5
20C
330
204
100
AcDbEntity
  8
0
100
AcDbVertex
100
AcDbPolyFaceMeshVertex
 10
2.0
 20
2.0
 30
24.0
 70
   192
  0
VERTEX
  5
20D
330
204
100
AcDbEntity
  8
0
100
AcDbFaceRecord
 10
0.0
 20
0.0
 30
0.0
 70
   128
 71
    -1
 72
    -2
 73
     3
  0
VERTEX
  5
20E
330
204
100
AcDbEntity
  8
0
100
AcDbFaceRecord
 10
0.0
 20
0.0
 30
0.0
 70
   128
 71
    -2
 72
     1
 73
    -4
  0
VERTEX
  5
20F
330
204
100
AcDbEntity
  8
0
100
AcDbFaceRecord
 10
0.0
 20
0.0
 30
0.0
 70
   128
 71
    -2
 72
    -4
 73
     5
  0
VERTEX
  5
210
330
204
100
AcDbEntity
  8
0
100
AcDbFaceRecord
 10
0.0
 20
0.0
 30
0.0
 70
   128
 71
    -5
 72
    -4
 73
     6
  0
VERTEX
  5
211
330
204
100
AcDbEntity
  8
0
100
AcDbFaceRecord
 10
0.0
 20
0.0
 30
0.0
 70
   128
 71
    -3
 72
    -7
 73
     8
  0
VERTEX
  5
212
330
204
100
AcDbEntity
  8
0
100
AcDbFaceRecord
 10
0.0
 20
0.0
 30
0.0
 70
   128
 71
    -7
 72
    -3
 73
     2
  0
VERTEX
  5
213
330
204
100
AcDbEntity
  8
0
100
AcDbFaceRecord
 10
0.0
 20
0.0
 30
0.0
 70
   128
 71
    -8
 72
     7
 73
    -6
  0
VERTEX
  5
214
330
204
100
AcDbEntity
  8
0
100
AcDbFaceRecord
 10
0.0
 20
0.0
 30
0.0
 70
   128
 71
    -8
 72
    -6
 73
     4
  0
SEQEND
  5
215
330
204
100
AcDbEntity
  8
0
  0
POLYLINE
  5
216
330
71
100
AcDbEntity
  8
0
100
AcDbPolyFaceMesh
 66
     1
 10
0.0
 20
0.0
 30
0.0
 70
    64
 71
     4
 72
     2
  0
VERTEX
  5
217
330
216
100
AcDbEntity
  8
0
100
AcDbVertex
100
AcDbPolyFaceMeshVertex
 10
2.009562999999998
 20
1.125
 30
21.25
 70
   192
  0
VERTEX
  5
218
330
216
100
AcDbEntity
  8
0
100
AcDbVertex
100
AcDbPolyFaceMeshVertex
 10
2.009562999999998
 20
0.875
 30
23.75
 70
   192
  0
VERTEX
  5
219
330
216
100
AcDbEntity
  8
0
100
AcDbVertex
100
AcDbPolyFaceMeshVertex
 10
2.009562999999998
 20
0.875
 30
21.25
 70
   192
  0
VERTEX
  5
21A
330
216
100
AcDbEntity
  8
0
100
AcDbVertex
100
AcDbPolyFaceMeshVertex
 10
2.009562999999998
 20
1.125
 30
23.75
 70
   192
  0
VERTEX
  5
21B
330
216
100
AcDbEntity
  8
0
100
AcDbFaceRecord
 10
0.0
 20
0.0
 30
0.0
 70
   128
 71
    -1
 72
     2
 73
     3
  0
VERTEX
  5
21C
330
216
100
AcDbEntity
  8
0
100
AcDbFaceRecord
 10
0.0
 20
0.0
 30
0.0
 70
   128
 71
    -2
 72
     1
 73
     4
  0
SEQEND
  5
21D
330
216
100
AcDbEntity
  8
0
  0
POLYLINE
  5
21E
330
71
100
AcDbEntity
  8
0
100
AcDbPolyFaceMesh
 66
     1
 10
0.0
 20
0.0
 30
0.0
 70
    64
 71
     4
 72
     2
  0
VERTEX
  5
21F
330
21E
100
AcDbEntity
  8
0
100
AcDbVertex
100
AcDbPolyFaceMeshVertex
 10
2.0
 20
2.0
 30
20.0
 70
   192
  0
VERTEX
  5
220
330
21E
100
AcDbEntity
  8
0
100
AcDbVertex
100
AcDbPolyFaceMeshVertex
 10
2.0
 20
0.0
 30
24.0
 70
   192
  0
VERTEX
  5
221
330
21E
100
AcDbEntity
  8
0
100
AcDbVertex
100
AcDbPolyFaceMeshVertex
 10
2.0
 20
0.0
 30
20.0
 70
   192
  0
VERTEX
  5
222
330
21E
100
AcDbEntity
  8
0
100
AcDbVertex
100
AcDbPolyFaceMeshVertex
 10
2.0
 20
2.0
 30
24.0
 70
   192
  0
VERTEX
  5
223
330
21E
100
AcDbEntity
  8
0
100
AcDbFaceRecord
 10
0.0
 20
0.0
 30
0.0
 70
   128
 71
    -1
 72
     2
 73
     3
  0
VERTEX
  5
224
330
21E
100
AcDbEntity
  8
0
100
AcDbFaceRecord
 10
0.0
 20
0.0
 30
0.0
 70
   128
 71
    -2
 72
     1
 73
     4
  0
SEQEND
  5
225
330
21E
100
AcDbEntity
  8
0
  0
POLYLINE
  5
226
330
71
100
AcDbEntity
  8
0
100
AcDbPolyFaceMesh
 66
     1
 10
0.0
 20
0.0
 30
0.0
 70
    64
 71
     4
 72
     2
  0
VERTEX
  5
227
330
226
100
AcDbEntity
  8
0
100
AcDbVertex
100
AcDbPolyFaceMeshVertex
 10
1.259563
 20
1.125
 30
23.75
 70
   192
  0
VERTEX
  5
228
330
226
100
AcDbEntity
  8
0
100
AcDbVertex
100
AcDbPolyFaceMeshVertex
 10
1.259563
 20
0.875
 30
21.25
 70
   192
  0
VERTEX
  5
229
330
226
100
AcDbEntity
  8
0
100
AcDbVertex
100
AcDbPolyFaceMeshVertex
 10
1.259563
 20
0.875
 30
23.75
 70
   192
  0
VERTEX
  5
22A
330
226
100
AcDbEntity
  8
0
100
AcDbVertex
100
AcDbPolyFaceMeshVertex
 10
1.259563
 20
1.125
 30
21.25
 70
   192
  0
VERTEX
  5
22B
330
226
100
AcDbEntity
  8
0
100
AcDbFaceRecord
 10
0.0
 20
0.0
 30
0.0
 70
   128
 71
    -1
 72
     2
 73
     3
  0
VERTEX
  5
22C
330
226
100
AcDbEntity
  8
0
100
AcDbFaceRecord
 10
0.0
 20
0.0
 30
0.0
 70
   128
 71
    -2
 72
     1
 73
     4
  0
SEQEND
  5
22D
330
226
100
AcDbEntity
  8
0
  0
POLYLINE
  5
22E
330
71
100
AcDbEntity
  8
0
100
AcDbPolyFaceMesh
 66
     1
 10
0.0
 20
0.0
 30
0.0
 70
    64
 71
     4
 72
     2
  0
VERTEX
  5
22F
330
22E
100
AcDbEntity
  8
0
100
AcDbVertex
100
AcDbPolyFaceMeshVertex
 10
1.259563
 20
1.125
 30
23.75
 70
   192
  0
VERTEX
  5
230
330
22E
100
AcDbEntity
  8
0
100
AcDbVertex
100
AcDbPolyFaceMeshVertex
 10
2.009562999999998
 20
1.125
 30
21.25
 70
   192
  0
VERTEX
  5
231
330
22E
100
AcDbEntity
  8
0
100
AcDbVertex
100
AcDbPolyFaceMeshVertex
 10
1.259563
 20
1.125
 30
21.25
 70
   192
  0
VERTEX
  5
232
330
22E
100
AcDbEntity
  8
0
100
AcDbVertex
100
AcDbPolyFaceMeshVertex
 10
2.009562999999998
 20
1.125
 30
23.75
 70
   192
  0
VERTEX
  5
233
330
22E
100
AcDbEntity
  8
0
100
AcDbFaceRecord
 10
0.0
 20
0.0
 30
0.0
 70
   128
 71
    -1
 72
     2
 73
     3
  0
VERTEX
  5
234
330
22E
100
AcDbEntity
  8
0
100
AcDbFaceRecord
 10
0.0
 20
0.0
 30
0.0
 70
   128
 71
    -2
 72
     1
 73
     4
  0
SEQEND
  5
235
330
22E
100
AcDbEntity
  8
0
  0
POLYLINE
  5
236
330
71
100
AcDbEntity
  8
0
100
AcDbPolyFaceMesh
 66
     1
 10
0.0
 20
0.0
 30
0.0
 70
    64
 71
     4
 72
     2
  0
VERTEX
  5
237
330
236
100
AcDbEntity
  8
0
100
AcDbVertex
100
AcDbPolyFaceMeshVertex
 10
2.009562999999998
 20
0.875
 30
23.75
 70
   192
  0
VERTEX
  5
238
330
236
100
AcDbEntity
  8
0
100
AcDbVertex
100
AcDbPolyFaceMeshVertex
 10
1.259563
 20
1.125
 30
23.75
 70
   192
  0
VERTEX
  5
239
330
236
100
AcDbEntity
  8
0
100
AcDbVertex
100
AcDbPolyFaceMeshVertex
 10
1.259563
 20
0.875
 30
23.75
 70
   192
  0
VERTEX
  5
23A
330
236
100
AcDbEntity
  8
0
100
AcDbVertex
100
AcDbPolyFaceMeshVertex
 10
2.009562999999998
 20
1.125
 30
23.75
 70
   192
  0
VERTEX
  5
23B
330
236
100
AcDbEntity
  8
0
100
AcDbFaceRecord
 10
0.0
 20
0.0
 30
0.0
 70
   128
 71
    -1
 72
     2
 73
     3
  0
VERTEX
  5
23C
330
236
100
AcDbEntity
  8
0
100
AcDbFaceRecord
 10
0.0
 20
0.0
 30
0.0
 70
   128
 71
    -2
 72
     1
 73
     4
  0
SEQEND
  5
23D
330
236
100
AcDbEntity
  8
0
  0
POLYLINE
  5
23E
330
71
100
AcDbEntity
  8
0
100
AcDbPolyFaceMesh
 66
     1
 10
0.0
 20
0.0
 30
0.0
 70
    64
 71
     4
 72
     2
  0
VERTEX
  5
23F
330
23E
100
AcDbEntity
  8
0
100
AcDbVertex
100
AcDbPolyFaceMeshVertex
 10
2.009562999999998
 20
0.875
 30
23.75
 70
   192
  0
VERTEX
  5
240
330
23E
100
AcDbEntity
  8
0
100
AcDbVertex
100
AcDbPolyFaceMeshVertex
 10
1.259563
 20
0.875
 30
21.25
 70
   192
  0
VERTEX
  5
241
330
23E
100
AcDbEntity
  8
0
100
AcDbVertex
100
AcDbPolyFaceMeshVertex
 10
2.009562999999998
 20
0.875
 30
21.25
 70
   192
  0
VERTEX
  5
242
330
23E
100
AcDbEntity
  8
0
100
AcDbVertex
100
AcDbPolyFaceMeshVertex
 10
1.259563
 20
0.875
 30
23.75
 70
   192
  0
VERTEX
  5
243
330
23E
100
AcDbEntity
  8
0
100
AcDbFaceRecord
 10
0.0
 20
0.0
 30
0.0
 70
   128
 71
    -1
 72
     2
 73
     3
  0
VERTEX
  5
244
330
23E
100
AcDbEntity
  8
0
100
AcDbFaceRecord
 10
0.0
 20
0.0
 30
0.0
 70
   128
 71
    -2
 72
     1
 73
     4
  0
SEQEND
  5
245
330
23E
100
AcDbEntity
  8
0
  0
POLYLINE
  5
246
330
71
100
AcDbEntity
  8
0
100
AcDbPolyFaceMesh
 66
     1
 10
0.0
 20
0.0
 30
0.0
 70
    64
 71
     4
 72
     2
  0
VERTEX
  5
247
330
246
100
AcDbEntity
  8
0
100
AcDbVertex
100
AcDbPolyFaceMeshVertex
 10
2.009562999999998
 20
1.125
 30
21.25
 70
   192
  0
VERTEX
  5
248
330
246
100
AcDbEntity
  8
0
100
AcDbVertex
100
AcDbPolyFaceMeshVertex
 10
1.259563
 20
0.875
 30
21.25
 70
   192
  0
VERTEX
  5
249
330
246
100
AcDbEntity
  8
0
100
AcDbVertex
100
AcDbPolyFaceMeshVertex
 10
1.259563
 20
1.125
 30
21.25
 70
   192
  0
VERTEX
  5
24A
330
246
100
AcDbEntity
  8
0
100
AcDbVertex
100
AcDbPolyFaceMeshVertex
 10
2.009562999999998
 20
0.875
 30
21.25
 70
   192
  0
VERTEX
  5
24B
330
246
100
AcDbEntity
  8
0
100
AcDbFaceRecord
 10
0.0
 20
0.0
 30
0.0
 70
   128
 71
    -1
 72
     2
 73
     3
  0
VERTEX
  5
24C
330
246
100
AcDbEntity
  8
0
100
AcDbFaceRecord
 10
0.0
 20
0.0
 30
0.0
 70
   128
 71
    -2
 72
     1
 73
     4
  0
SEQEND
  5
24D
330
246
100
AcDbEntity
  8
0
  0
POLYLINE
  5
24E
330
71
100
AcDbEntity
  8
0
100
AcDbPolyFaceMesh
 66
     1
 10
0.0
 20
0.0
 30
0.0
 70
    64
 71
     4
 72
     2
  0
VERTEX
  5
24F
330
24E
100
AcDbEntity
  8
0
100
AcDbVertex
100
AcDbPolyFaceMeshVertex
 10
0.8749999999999964
 20
1.249999999999996
 30
23.75
 70
   192
  0
VERTEX
  5
250
330
24E
100
AcDbEntity
  8
0
100
AcDbVertex
100
AcDbPolyFaceMeshVertex
 10
1.124999999999996
 20
1.250000000000004
 30
21.25
 70
   192
  0
VERTEX
  5
251
330
24E
100
AcDbEntity
  8
0
100
AcDbVertex
100
AcDbPolyFaceMeshVertex
 10
0.8749999999999964
 20
1.249999999999996
 30
21.25
 70
   192
  0
VERTEX
  5
252
330
24E
100
AcDbEntity
  8
0
100
AcDbVertex
100
AcDbPolyFaceMeshVertex
 10
1.124999999999996
 20
1.250000000000004
 30
23.75
 70
   192
  0
VERTEX
  5
253
330
24E
100
AcDbEntity
  8
0
100
AcDbFaceRecord
 10
0.0
 20
0.0
 30
0.0
 70
   128
 71
    -1
 72
     2
 73
     3
  0
VERTEX
  5
254
330
24E
100
AcDbEntity
  8
0
100
AcDbFaceRecord
 10
0.0
 20
0.0
 30
0.0
 70
   128
 71
    -2
 72
     1
 73
     4
  0
SEQEND
  5
255
330
24E
100
AcDbEntity
  8
0
  0
POLYLINE
  5
256
330
71
100
AcDbEntity
  8
0
100
AcDbPolyFaceMesh
 66
     1
 10
0.0
 20
0.0
 30
0.0
 70
    64
 71
     4
 72
     2
  0
VERTEX
  5
257
330
256
100
AcDbEntity
  8
0
100
AcDbVertex
100
AcDbPolyFaceMeshVertex
 10
1.124999999999996
 20
2.000000000000004
 30
23.75
 70
   192
  0
VERTEX
  5
258
330
256
100
AcDbEntity
  8
0
100
AcDbVertex
100
AcDbPolyFaceMeshVertex
 10
0.8749999999999964
 20
1.249999999999996
 30
23.75
 70
   192
  0
VERTEX
  5
259
330
256
100
AcDbEntity
  8
0
100
AcDbVertex
100
AcDbPolyFaceMeshVertex
 10
0.8749999999999964
 20
2.000000000000004
 30
23.75
 70
   192
  0
VERTEX
  5
25A
330
256
100
AcDbEntity
  8
0
100
AcDbVertex
100
AcDbPolyFaceMeshVertex
 10
1.124999999999996
 20
1.250000000000004
 30
23.75
 70
   192
  0
VERTEX
  5
25B
330
256
100
AcDbEntity
  8
0
100
AcDbFaceRecord
 10
0.0
 20
0.0
 30
0.0
 70
   128
 71
    -1
 72
     2
 73
     3
  0
VERTEX
  5
25C
330
256
100
AcDbEntity
  8
0
100
AcDbFaceRecord
 10
0.0
 20
0.0
 30
0.0
 70
   128
 71
    -2
 72
     1
 73
     4
  0
SEQEND
  5
25D
330
256
100
AcDbEntity
  8
0
  0
POLYLINE
  5
25E
330
71
100
AcDbEntity
  8
0
100
AcDbPolyFaceMesh
 66
     1
 10
0.0
 20
0.0
 30
0.0
 70
    64
 71
     4
 72
     2
  0
VERTEX
  5
25F
330
25E
100
AcDbEntity
  8
0
100
AcDbVertex
100
AcDbPolyFaceMeshVertex
 10
1.124999999999996
 20
2.000000000000004
 30
23.75
 70
   192
  0
VERTEX
  5
260
330
25E
100
AcDbEntity
  8
0
100
AcDbVertex
100
AcDbPolyFaceMeshVertex
 10
1.124999999999996
 20
1.250000000000004
 30
21.25
 70
   192
  0
VERTEX
  5
261
330
25E
100
AcDbEntity
  8
0
100
AcDbVertex
100
AcDbPolyFaceMeshVertex
 10
1.124999999999996
 20
1.250000000000004
 30
23.75
 70
   192
  0
VERTEX
  5
262
330
25E
100
AcDbEntity
  8
0
100
AcDbVertex
100
AcDbPolyFaceMeshVertex
 10
1.124999999999996
 20
2.000000000000004
 30
21.25
 70
   192
  0
VERTEX
  5
263
330
25E
100
AcDbEntity
  8
0
100
AcDbFaceRecord
 10
0.0
 20
0.0
 30
0.0
 70
   128
 71
    -1
 72
     2
 73
     3
  0
VERTEX
  5
264
330
25E
100
AcDbEntity
  8
0
100
AcDbFaceRecord
 10
0.0
 20
0.0
 30
0.0
 70
   128
 71
    -2
 72
     1
 73
     4
  0
SEQEND
  5
265
330
25E
100
AcDbEntity
  8
0
  0
POLYLINE
  5
266
330
71
100
AcDbEntity
  8
0
100
AcDbPolyFaceMesh
 66
     1
 10
0.0
 20
0.0
 30
0.0
 70
    64
 71
     4
 72
     2
  0
VERTEX
  5
267
330
266
100
AcDbEntity
  8
0
100
AcDbVertex
100
AcDbPolyFaceMeshVertex
 10
1.124999999999996
 20
1.250000000000004
 30
21.25
 70
   192
  0
VERTEX
  5
268
330
266
100
AcDbEntity
  8
0
100
AcDbVertex
100
AcDbPolyFaceMeshVertex
 10
0.8749999999999964
 20
2.000000000000004
 30
21.25
 70
   192
  0
VERTEX
  5
269
330
266
100
AcDbEntity
  8
0
100
AcDbVertex
100
AcDbPolyFaceMeshVertex
 10
0.8749999999999964
 20
1.249999999999996
 30
21.25
 70
   192
  0
VERTEX
  5
26A
330
266
100
AcDbEntity
  8
0
100
AcDbVertex
100
AcDbPolyFaceMeshVertex
 10
1.124999999999996
 20
2.000000000000004
 30
21.25
 70
   192
  0
VERTEX
  5
26B
330
266
100
AcDbEntity
  8
0
100
AcDbFaceRecord
 10
0.0
 20
0.0
 30
0.0
 70
   128
 71
    -1
 72
     2
 73
     3
  0
VERTEX
  5
26C
330
266
100
AcDbEntity
  8
0
100
AcDbFaceRecord
 10
0.0
 20
0.0
 30
0.0
 70
   128
 71
    -2
 72
     1
 73
     4
  0
SEQEND
  5
26D
330
266
100
AcDbEntity
  8
0
  0
POLYLINE
  5
26E
330
71
100
AcDbEntity
  8
0
100
AcDbPolyFaceMesh
 66
     1
 10
0.0
 20
0.0
 30
0.0
 70
    64
 71
     4
 72
     2
  0
VERTEX
  5
26F
330
26E
100
AcDbEntity
  8
0
100
AcDbVertex
100
AcDbPolyFaceMeshVertex
 10
0.8749999999999964
 20
2.000000000000004
 30
21.25
 70
   192
  0
VERTEX
  5
270
330
26E
100
AcDbEntity
  8
0
100
AcDbVertex
100
AcDbPolyFaceMeshVertex
 10
0.8749999999999964
 20
1.249999999999996
 30
23.75
 70
   192
  0
VERTEX
  5
271
330
26E
100
AcDbEntity
  8
0
100
AcDbVertex
100
AcDbPolyFaceMeshVertex
 10
0.8749999999999964
 20
1.249999999999996
 30
21.25
 70
   192
  0
VERTEX
  5
272
330
26E
100
AcDbEntity
  8
0
100
AcDbVertex
100
AcDbPolyFaceMeshVertex
 10
0.8749999999999964
 20
2.000000000000004
 30
23.75
 70
   192
  0
VERTEX
  5
273
330
26E
100
AcDbEntity
  8
0
100
AcDbFaceRecord
 10
0.0
 20
0.0
 30
0.0
 70
   128
 71
    -1
 72
     2
 73
     3
  0
VERTEX
  5
274
330
26E
100
AcDbEntity
  8
0
100
AcDbFaceRecord
 10
0.0
 20
0.0
 30
0.0
 70
   128
 71
    -2
 72
     1
 73
     4
  0
SEQEND
  5
275
330
26E
100
AcDbEntity
  8
0
  0
POLYLINE
  5
276
330
71
100
AcDbEntity
  8
0
100
AcDbPolyFaceMesh
 66
     1
 10
0.0
 20
0.0
 30
0.0
 70
    64
 71
     4
 72
     2
  0
VERTEX
  5
277
330
276
100
AcDbEntity
  8
0
100
AcDbVertex
100
AcDbPolyFaceMeshVertex
 10
1.5
 20
1.5
 30
0.0
 70
   192
  0
VERTEX
  5
278
330
276
100
AcDbEntity
  8
0
100
AcDbVertex
100
AcDbPolyFaceMeshVertex
 10
0.5
 20
0.4999999999999999
 30
0.0
 70
   192
  0
VERTEX
  5
279
330
276
100
AcDbEntity
  8
0
100
AcDbVertex
100
AcDbPolyFaceMeshVertex
 10
0.5
 20
1.5
 30
0.0
 70
   192
  0
VERTEX
  5
27A
330
276
100
AcDbEntity
  8
0
100
AcDbVertex
100
AcDbPolyFaceMeshVertex
 10
1.5
 20
0.5
 30
0.0
 70
   192
  0
VERTEX
  5
27B
330
276
100
AcDbEntity
  8
0
100
AcDbFaceRecord
 10
0.0
 20
0.0
 30
0.0
 70
   128
 71
    -1
 72
     2
 73
     3
  0
VERTEX
  5
27C
330
276
100
AcDbEntity
  8
0
100
AcDbFaceRecord
 10
0.0
 20
0.0
 30
0.0
 70
   128
 71
    -2
 72
     1
 73
     4
  0
SEQEND
  5
27D
330
276
100
AcDbEntity
  8
0
  0
ENDBLK
  5
73
330
71
100
AcDbEntity
  8
0
100
AcDbBlockEnd
  0
ENDSEC
  0
SECTION
  2
ENTITIES
  0
INSERT
  5
27E
330
1F
100
AcDbEntity
  8
0
100
AcDbBlockReference
  2
LEG
 10
0.0
 20
0.0
 30
0.0
  0
INSERT
  5
27F
330
1F
100
AcDbEntity
  8
0
100
AcDbBlockReference
  2
STRETCHER
 10
2.0
 20
0.625
 30
21.0
  0
INSERT
  5
280
330
1F
100
AcDbEntity
  8
0
100
AcDbBlockReference
  2
LEG
 10
0.0000000000000036
 20
18.0
 30
0.0
 50
270.0
  0
INSERT
  5
281
330
1F
100
AcDbEntity
  8
0
100
AcDbBlockReference
  2
STRETCHER
 10
0.6250000000000028
 20
16.0
 30
21.0
 50
270.0
  0
INSERT
  5
282
330
1F
100
AcDbEntity
  8
0
100
AcDbBlockReference
  2
LEG
 10
18.00000000000001
 20
17.99999999999999
 30
0.0
 50
180.0
  0
INSERT
  5
283
330
1F
100
AcDbEntity
  8
0
100
AcDbBlockReference
  2
STRETCHER
 10
16.00000000000001
 20
17.37499999999999
 30
21.0
 50
180.0
  0
INSERT
  5
284
330
1F
100
AcDbEntity
  8
0
100
AcDbBlockReference
  2
LEG
 10
17.99999999999999
 20
-0.0000000000000142
 30
0.0
 50
89.99999999999991
  0
INSERT
  5
285
330
1F
100
AcDbEntity
  8
0
100
AcDbBlockReference
  2
STRETCHER
 10
17.37499999999999
 20
1.999999999999987
 30
21.0
 50
89.99999999999991
  0
INSERT
  5
286
330
1F
100
AcDbEntity
  8
0
100
AcDbBlockReference
  2
TOP
 10
-1.999999999999996
 20
-2.000000000000014
 30
24.0
  0
ENDSEC
  0
SECTION
  2
OBJECTS
  0
DICTIONARY
  5
C
330
0
100
AcDbDictionary
  3
ACAD_GROUP
350
D
  3
ACAD_LAYOUT
350
1A
  3
ACAD_MATERIAL
350
43
  3
ACAD_MLEADERSTYLE
350
2A9
  3
ACAD_MLINESTYLE
350
17
  3
ACAD_PLOTSETTINGS
350
19
  3
ACAD_SCALELIST
350
47
  3
ACAD_VISUALSTYLE
350
2A
  3
ACDBHEADERROUNDTRIPXREC
350
287
  3
ACDBVARIABLEDICTIONARY
350
2A7
  0
DICTIONARY
  5
2AE
330
8
100
AcDbDictionary
280
     1
  3
ACAD_XREC_ROUNDTRIP
360
2AF
  0
DICTIONARY
  5
D
102
{ACAD_REACTORS
330
C
102
}
330
C
100
AcDbDictionary
  0
DICTIONARY
  5
1A
102
{ACAD_REACTORS
330
C
102
}
330
C
100
AcDbDictionary
  0
DICTIONARY
  5
43
102
{ACAD_REACTORS
330
C
102
}
330
C
100
AcDbDictionary
  3
BYBLOCK
350
45
  3
BYLAYER
350
44
  3
GLOBAL
350
46
  0
DICTIONARY
  5
2A9
102
{ACAD_REACTORS
330
C
102
}
330
C
100
AcDbDictionary
  0
DICTIONARY
  5
17
102
{ACAD_REACTORS
330
C
102
}
330
C
100
AcDbDictionary
  3
STANDARD
350
18
  0
DICTIONARY
  5
19
102
{ACAD_REACTORS
330
C
102
}
330
C
100
AcDbDictionary
  0
DICTIONARY
  5
47
102
{ACAD_REACTORS
330
C
102
}
330
C
100
AcDbDictionary
  3
A0
350
48
  3
A1
350
49
  3
A2
350
4A
  3
A3
350
4B
  3
A4
350
4C
  3
A5
350
4D
  3
A6
350
4E
  3
A7
350
4F
  3
A8
350
50
  3
A9
350
51
  3
B0
350
52
  3
B1
350
53
  3
B2
350
54
  3
B3
350
55
  3
B4
350
56
  3
B5
350
57
  3
B6
350
58
  3
B7
350
59
  3
B8
350
5A
  3
B9
350
5B
  3
C0
350
5C
  3
C1
350
5D
  3
C2
350
5E
  3
C3
350
5F
  3
C4
350
60
  3
C5
350
61
  3
C6
350
62
  3
C7
350
63
  3
C8
350
64
  3
C9
350
65
  3
D0
350
66
  3
D1
350
67
  3
D2
350
68
  0
DICTIONARY
  5
2A
102
{ACAD_REACTORS
330
C
102
}
330
C
100
AcDbDictionary
  3
2DWIREFRAME
350
2F
  3
BASIC
350
32
  3
BRIGHTEN
350
36
  3
COLORCHANGE
350
3A
  3
CONCEPTUAL
350
34
  3
DIM
350
35
  3
EDGECOLOROFF
350
3D
  3
FACEPATTERN
350
39
  3
FLAT
350
2B
  3
FLATWITHEDGES
350
2C
  3
GOURAUD
350
2D
  3
GOURAUDWITHEDGES
350
2E
  3
HIDDEN
350
31
  3
JITTEROFF
350
3B
  3
LINEPATTERN
350
38
  3
OVERHANGOFF
350
3C
  3
REALISTIC
350
33
  3
SHADED
350
42
  3
SHADED_WITH_EDGES
350
41
  3
SHADES_OF_GRAY
350
3E
  3
SKETCHY
350
3F
  3
THICKEN
350
37
  3
WIREFRAME
350
30
  3
X-RAY
350
40
  0
DICTIONARY
  5
287
102
{ACAD_REACTORS
330
C
102
}
330
C
100
AcDbDictionary
  3
CEPSNTYPE
350
290
  3
DIMSTYLEDATA
350
2A6
  3
FINGERPRINTGUID
350
291
  3
HYPERLINKBASE
350
28A
  3
INSUNITS
350
28F
  3
LAYOUTDICT
350
28C
  3
LWETCUNION
350
28E
  3
PLOTSETDICT
350
28D
  3
PSVPSCALE
350
293
  3
PUCSBASE
350
296
  3
PUCSORGBACK
350
29C
  3
PUCSORGBOTTOM
350
298
  3
PUCSORGFRONT
350
29B
  3
PUCSORGLEFT
350
299
  3
PUCSORGRIGHT
350
29A
  3
PUCSORGTOP
350
297
  3
PUCSORTHOREF
350
294
  3
PUCSORTHOVIEW
350
295
  3
STYLESHEET
350
28B
  3
TSTACKALIGN
350
288
  3
TSTACKSIZE
350
289
  3
UCSBASE
350
29F
  3
UCSORGBACK
350
2A5
  3
UCSORGBOTTOM
350
2A1
  3
UCSORGFRONT
350
2A4
  3
UCSORGLEFT
350
2A2
  3
UCSORGRIGHT
350
2A3
  3
UCSORGTOP
350
2A0
  3
UCSORTHOREF
350
29D
  3
UCSORTHOVIEW
350
29E
  3
VERSIONGUID
350
292
  0
DICTIONARY
  5
2A7
102
{ACAD_REACTORS
330
C
102
}
330
C
100
AcDbDictionary
  3
CANNOSCALE
350
2B0
  3
DIMASSOC
350
2AC
  3
HIDETEXT
350
2AD
  3
MSLTSCALE
350
2B1
  0
XRECORD
  5
2AF
102
{ACAD_REACTORS
330
2AE
102
}
330
2AE
100
AcDbXrecord
102
VTR_0.000_0.000_1.000_1.000_GRIDDISPLAY
 70
     3
102
VTR_0.000_0.000_1.000_1.000_GRIDMAJOR
 70
     5
102
VTR_0.000_0.000_1.000_1.000_DEFAULTLIGHTING
280
     1
102
VTR_0.000_0.000_1.000_1.000_DEFAULTLIGHTINGTYPE
 70
     1
102
VTR_0.000_0.000_1.000_1.000_BRIGHTNESS
141
0.0
102
VTR_0.000_0.000_1.000_1.000_CONTRAST
142
0.0
  0
MATERIAL
  5
45
102
{ACAD_REACTORS
330
43
102
}
102
{ACAD_XDICTIONARY
360
2B4
102
}
330
43
100
AcDbMaterial
  1
BYBLOCK
  0
MATERIAL
  5
44
102
{ACAD_REACTORS
330
43
102
}
102
{ACAD_XDICTIONARY
360
2B2
102
}
330
43
100
AcDbMaterial
  1
BYLAYER
  0
MATERIAL
  5
46
102
{ACAD_REACTORS
330
43
102
}
102
{ACAD_XDICTIONARY
360
2B6
102
}
330
43
100
AcDbMaterial
  1
GLOBAL
  0
MLINESTYLE
  5
18
102
{ACAD_REACTORS
330
17
102
}
330
17
100
AcDbMlineStyle
  2
Standard
 70
     0
  3

 62
   256
 51
90.0
 52
90.0
 71
     2
 49
0.5
 62
   256
  6
BYLAYER
 49
-0.5
 62
   256
  6
BYLAYER
  0
ACAD_PROXY_OBJECT
  5
48
102
{ACAD_REACTORS
330
47
102
}
330
47
100
AcDbProxyObject
 90
      499
 91
      503
 93
       41
310
903313A31580
  0
ACAD_PROXY_OBJECT
  5
49
102
{ACAD_REACTORS
330
47
102
}
330
47
100
AcDbProxyObject
 90
      499
 91
      503
 93
      105
310
903313A324000000000000004000
  0
ACAD_PROXY_OBJECT
  5
4A
102
{ACAD_REACTORS
330
47
102
}
330
47
100
AcDbProxyObject
 90
      499
 91
      503
 93
      105
310
903313A344000000000000104000
  0
ACAD_PROXY_OBJECT
  5
4B
102
{ACAD_REACTORS
330
47
102
}
330
47
100
AcDbProxyObject
 90
      499
 91
      503
 93
      105
310
903313A354000000000000144000
  0
ACAD_PROXY_OBJECT
  5
4C
102
{ACAD_REACTORS
330
47
102
}
330
47
100
AcDbProxyObject
 90
      499
 91
      503
 93
      105
310
903313A384000000000000204000
  0
ACAD_PROXY_OBJECT
  5
4D
102
{ACAD_REACTORS
330
47
102
}
330
47
100
AcDbProxyObject
 90
      499
 91
      503
 93
      113
310
904313A31304000000000000244000
  0
ACAD_PROXY_OBJECT
  5
4E
102
{ACAD_REACTORS
330
47
102
}
330
47
100
AcDbProxyObject
 90
      499
 91
      503
 93
      113
310
904313A31364000000000000304000
  0
ACAD_PROXY_OBJECT
  5
4F
102
{ACAD_REACTORS
330
47
102
}
330
47
100
AcDbProxyObject
 90
      499
 91
      503
 93
      113
310
904313A32304000000000000344000
  0
ACAD_PROXY_OBJECT
  5
50
102
{ACAD_REACTORS
330
47
102
}
330
47
100
AcDbProxyObject
 90
      499
 91
      503
 93
      113
310
904313A333040000000000003E4000
  0
ACAD_PROXY_OBJECT
  5
51
102
{ACAD_REACTORS
330
47
102
}
330
47
100
AcDbProxyObject
 90
      499
 91
      503
 93
      113
310
904313A34304000000000000444000
  0
ACAD_PROXY_OBJECT
  5
52
102
{ACAD_REACTORS
330
47
102
}
330
47
100
AcDbProxyObject
 90
      499
 91
      503
 93
      113
310
904313A35304000000000000494000
  0
ACAD_PROXY_OBJECT
  5
53
102
{ACAD_REACTORS
330
47
102
}
330
47
100
AcDbProxyObject
 90
      499
 91
      503
 93
      121
310
905313A3130304000000000000594000
  0
ACAD_PROXY_OBJECT
  5
54
102
{ACAD_REACTORS
330
47
102
}
330
47
100
AcDbProxyObject
 90
      499
 91
      503
 93
      105
310
903323A310000000000000010100
  0
ACAD_PROXY_OBJECT
  5
55
102
{ACAD_REACTORS
330
47
102
}
330
47
100
AcDbProxyObject
 90
      499
 91
      503
 93
      105
310
903343A310000000000000410100
  0
ACAD_PROXY_OBJECT
  5
56
102
{ACAD_REACTORS
330
47
102
}
330
47
100
AcDbProxyObject
 90
      499
 91
      503
 93
      105
310
903383A310000000000000810100
  0
ACAD_PROXY_OBJECT
  5
57
102
{ACAD_REACTORS
330
47
102
}
330
47
100
AcDbProxyObject
 90
      499
 91
      503
 93
      113
310
90431303A310000000000000910100
  0
ACAD_PROXY_OBJECT
  5
58
102
{ACAD_REACTORS
330
47
102
}
330
47
100
AcDbProxyObject
 90
      499
 91
      503
 93
      121
310
9053130303A310000000000001650100
  0
ACAD_PROXY_OBJECT
  5
59
102
{ACAD_REACTORS
330
47
102
}
330
47
100
AcDbProxyObject
 90
      499
 91
      503
 93
      257
310
90E312F31323822203D2031272D3022000000000000200FC000000000000284000
  0
ACAD_PROXY_OBJECT
  5
5A
102
{ACAD_REACTORS
330
47
102
}
330
47
100
AcDbProxyObject
 90
      499
 91
      503
 93
      249
310
90D312F363422203D2031272D3022000000000000240FC000000000000284000
  0
ACAD_PROXY_OBJECT
  5
5B
102
{ACAD_REACTORS
330
47
102
}
330
47
100
AcDbProxyObject
 90
      499
 91
      503
 93
      249
310
90D312F333222203D2031272D3022000000000000280FC000000000000284000
  0
ACAD_PROXY_OBJECT
  5
5C
102
{ACAD_REACTORS
330
47
102
}
330
47
100
AcDbProxyObject
 90
      499
 91
      503
 93
      249
310
90D312F313622203D2031272D30220000000000002C0FC000000000000284000
  0
ACAD_PROXY_OBJECT
  5
5D
102
{ACAD_REACTORS
330
47
102
}
330
47
100
AcDbProxyObject
 90
      499
 91
      503
 93
      249
310
90D332F333222203D2031272D30220000000000002E0FC000000000000284000
  0
ACAD_PROXY_OBJECT
  5
5E
102
{ACAD_REACTORS
330
47
102
}
330
47
100
AcDbProxyObject
 90
      499
 91
      503
 93
      241
310
90C312F3822203D2031272D3022000000000000300FC000000000000284000
  0
ACAD_PROXY_OBJECT
  5
5F
102
{ACAD_REACTORS
330
47
102
}
330
47
100
AcDbProxyObject
 90
      499
 91
      503
 93
      249
310
90D332F313622203D2031272D3022000000000000320FC000000000000284000
  0
ACAD_PROXY_OBJECT
  5
60
102
{ACAD_REACTORS
330
47
102
}
330
47
100
AcDbProxyObject
 90
      499
 91
      503
 93
      241
310
90C312F3422203D2031272D3022000000000000340FC000000000000284000
  0
ACAD_PROXY_OBJECT
  5
61
102
{ACAD_REACTORS
330
47
102
}
330
47
100
AcDbProxyObject
 90
      499
 91
      503
 93
      241
310
90C332F3822203D2031272D3022000000000000360FC000000000000284000
  0
ACAD_PROXY_OBJECT
  5
62
102
{ACAD_REACTORS
330
47
102
}
330
47
100
AcDbProxyObject
 90
      499
 91
      503
 93
      241
310
90C312F3222203D2031272D3022000000000000380FC000000000000284000
  0
ACAD_PROXY_OBJECT
  5
63
102
{ACAD_REACTORS
330
47
102
}
330
47
100
AcDbProxyObject
 90
      499
 91
      503
 93
      241
310
90C332F3422203D2031272D30220000000000003A0FC000000000000284000
  0
ACAD_PROXY_OBJECT
  5
64
102
{ACAD_REACTORS
330
47
102
}
330
47
100
AcDbProxyObject
 90
      499
 91
      503
 93
      161
310
90A3122203D2031272D30224000000000000284000
  0
ACAD_PROXY_OBJECT
  5
65
102
{ACAD_REACTORS
330
47
102
}
330
47
100
AcDbProxyObject
 90
      499
 91
      503
 93
      257
310
90E312D312F3222203D2031272D30220000000000003E0FC000000000000284000
  0
ACAD_PROXY_OBJECT
  5
66
102
{ACAD_REACTORS
330
47
102
}
330
47
100
AcDbProxyObject
 90
      499
 91
      503
 93
      225
310
90A3322203D2031272D302200000000000002100000000000000284000
  0
ACAD_PROXY_OBJECT
  5
67
102
{ACAD_REACTORS
330
47
102
}
330
47
100
AcDbProxyObject
 90
      499
 91
      503
 93
      225
310
90A3622203D2031272D302200000000000006100000000000000284000
  0
ACAD_PROXY_OBJECT
  5
68
102
{ACAD_REACTORS
330
47
102
}
330
47
100
AcDbProxyObject
 90
      499
 91
      503
 93
      249
310
90D31272D3022203D2031272D30220000000000000A100000000000000284000
  0
ACAD_PROXY_OBJECT
  5
2F
102
{ACAD_REACTORS
330
2A
102
}
330
2A
100
AcDbProxyObject
 90
      499
 91
      501
 93
      436
310
42CC9915DA5C99599C985B595049028333333333333E33F0000000000000F90107901411070040501600405405064090741402480A0340
1001
ACAD
1000
AcDbSavedByObjectVersion
1070
     0
  0
ACAD_PROXY_OBJECT
  5
32
102
{ACAD_REACTORS
330
2A
102
}
330
2A
100
AcDbProxyObject
 90
      499
 91
      501
 93
      388
310
4150985CDA58D07406404333333333333E33F0000000000000F90107A41107004050150841D405064090741402480A0350
1001
ACAD
1000
AcDbSavedByObjectVersion
1070
     0
  0
ACAD_PROXY_OBJECT
  5
36
102
{ACAD_REACTORS
330
2A
102
}
330
2A
100
AcDbProxyObject
 90
      499
 91
      501
 93
      428
310
42109C9A59DA1D195B90C409028333333333333E33F0000000000000F9010790141107004050150841D405064090741402480A029950
1001
ACAD
1000
AcDbSavedByObjectVersion
1070
     0
  0
ACAD_PROXY_OBJECT
  5
3A
102
{ACAD_REACTORS
330
2A
102
}
330
2A
100
AcDbProxyObject
 90
      499
 91
      501
 93
      452
310
42D0DBDB1BDC90DA185B99D95104090240C333333333333E33F0000000000000F90108901411070040501508421405064090741402480A0350
1001
ACAD
1000
AcDbSavedByObjectVersion
1070
     0
  0
ACAD_PROXY_OBJECT
  5
34
102
{ACAD_REACTORS
330
2A
102
}
330
2A
100
AcDbProxyObject
 90
      499
 91
      501
 93
      500
310
4290DBDB98D95C1D1D585B10940D028333333333333E33F0000000000000F90107902409070040501000000000018199010841D405064090740C02480A0340
1001
ACAD
1000
AcDbSavedByObjectVersion
1070
     0
  0
ACAD_PROXY_OBJECT
  5
35
102
{ACAD_REACTORS
330
2A
102
}
330
2A
100
AcDbProxyObject
 90
      499
 91
      501
 93
      412
310
40D11A5B50B409028333333333333E33F0000000000000F9010790141107004050150841D405064090741402480A02677FFFFFD0
1001
ACAD
1000
AcDbSavedByObjectVersion
1070
     0
  0
ACAD_PROXY_OBJECT
  5
3D
102
{ACAD_REACTORS
330
2A
102
}
330
2A
100
AcDbProxyObject
 90
      499
 91
      501
 93
      452
310
43115919D950DBDB1BDC93D999916409028333333333333E33F0000000000000F9010790141107004050150841D405064090741402480A0350
1001
ACAD
1000
AcDbSavedByObjectVersion
1070
     0
  0
ACAD_PROXY_OBJECT
  5
39
102
{ACAD_REACTORS
330
2A
102
}
330
2A
100
AcDbProxyObject
 90
      499
 91
      501
 93
      444
310
42D19858D95C185D1D195C9B90F409028333333333333E33F0000000000000F9010790141107004050150841D405064090741402480A0350
1001
ACAD
1000
AcDbSavedByObjectVersion
1070
     0
  0
ACAD_PROXY_OBJECT
  5
2B
102
{ACAD_REACTORS
330
2A
102
}
330
2A
100
AcDbProxyObject
 90
      499
 91
      501
 93
      380
310
41119B185D240901404333333333333E33F0000000000000F9010740A907004050150841D405064090741402480A1B50
1001
ACAD
1000
AcDbSavedByObjectVersion
1070
     0
  0
ACAD_PROXY_OBJECT
  5
2C
102
{ACAD_REACTORS
330
2A
102
}
330
2A
100
AcDbProxyObject
 90
      499
 91
      501
 93
      468
310
43519B185D15DA5D1A115919D95CD0140901404333333333333E33F0000000000000F90107409019070040501600405405064090741402480A1B50
1001
ACAD
1000
AcDbSavedByObjectVersion
1070
     0
  0
ACAD_PROXY_OBJECT
  5
2D
102
{ACAD_REACTORS
330
2A
102
}
330
2A
100
AcDbProxyObject
 90
      499
 91
      501
 93
      404
310
41D1DBDD5C985D5910240902404333333333333E33F0000000000000F9010740A9070040501641D405064090741402480A1B50
1001
ACAD
1000
AcDbSavedByObjectVersion
1070
     0
  0
ACAD_PROXY_OBJECT
  5
2E
102
{ACAD_REACTORS
330
2A
102
}
330
2A
100
AcDbProxyObject
 90
      499
 91
      501
 93
      492
310
4411DBDD5C985D5915DA5D1A115919D95CD0340902404333333333333E33F0000000000000F90107409019070040501600405405064090741402480A1B50
1001
ACAD
1000
AcDbSavedByObjectVersion
1070
     0
  0
ACAD_PROXY_OBJECT
  5
31
102
{ACAD_REACTORS
330
2A
102
}
330
2A
100
AcDbProxyObject
 90
      499
 91
      501
 93
      476
310
41921A5919195B90640502408333333333333E33F0000000000000F901079024090700405020000000000001110200405405064090740C02480A0340
1001
ACAD
1000
AcDbSavedByObjectVersion
1070
     0
  0
ACAD_PROXY_OBJECT
  5
3B
102
{ACAD_REACTORS
330
2A
102
}
330
2A
100
AcDbProxyObject
 90
      499
 91
      501
 93
      428
310
42529A5D1D195C93D999914409028333333333333E33F0000000000000F9010790141107004050150A41D405064090741402480A0350
1001
ACAD
1000
AcDbSavedByObjectVersion
1070
     0
  0
ACAD_PROXY_OBJECT
  5
38
102
{ACAD_REACTORS
330
2A
102
}
330
2A
100
AcDbProxyObject
 90
      499
 91
      501
 93
      444
310
42D31A5B995C185D1D195C9B90E409028333333333333E33F0000000000000F9010790141107004050750841D405064090741402483A0350
1001
ACAD
1000
AcDbSavedByObjectVersion
1070
     0
  0
ACAD_PROXY_OBJECT
  5
3C
102
{ACAD_REACTORS
330
2A
102
}
330
2A
100
AcDbProxyObject
 90
      499
 91
      501
 93
      444
310
42D3DD995C9A185B99D3D999915409028333333333333E33F0000000000000F9010790141107004050150941D405064090741402480A0350
1001
ACAD
1000
AcDbSavedByObjectVersion
1070
     0
  0
ACAD_PROXY_OBJECT
  5
33
102
{ACAD_REACTORS
330
2A
102
}
330
2A
100
AcDbProxyObject
 90
      499
 91
      501
 93
      428
310
425499585B1A5CDD1A58D08409038333333333333E33F0000000000000F9010740A907004050150800405405064090740C02480A1B40
1001
ACAD
1000
AcDbSavedByObjectVersion
1070
     0
  0
ACAD_PROXY_OBJECT
  5
42
102
{ACAD_REACTORS
330
2A
102
}
330
2A
100
AcDbProxyObject
 90
      499
 91
      501
 93
      420
310
4194DA1859195911B40902404333333333333E33F0000000000000F9010740A41107004050150800405405064090840C02480A0B40
1001
ACAD
1000
AcDbSavedByObjectVersion
1070
     0
  0
ACAD_PROXY_OBJECT
  5
41
102
{ACAD_REACTORS
330
2A
102
}
330
2A
100
AcDbProxyObject
 90
      499
 91
      501
 93
      516
310
4454DA18591959081DDA5D1A08195919D95CD1A40902404333333333333E33F0000000000000F901074090142907004050250800405405064090740C02480A0B40
1001
ACAD
1000
AcDbSavedByObjectVersion
1070
     0
  0
ACAD_PROXY_OBJECT
  5
3E
102
{ACAD_REACTORS
330
2A
102
}
330
2A
100
AcDbProxyObject
 90
      499
 91
      501
 93
      532
310
4394DA1859195CC81BD98811DC985E5174090240C333333333333E33F0000000000000F901079024090741D01000000000000111010841D405064090740C02480A0340
1001
ACAD
1000
AcDbSavedByObjectVersion
1070
     0
  0
ACAD_PROXY_OBJECT
  5
3F
102
{ACAD_REACTORS
330
2A
102
}
330
2A
100
AcDbProxyObject
 90
      499
 91
      501
 93
      476
310
41D4DAD95D18DA1E51840502408333333333333E33F0000000000000F901079024090741D01000000000000111010B41D405064090741802480A0340
1001
ACAD
1000
AcDbSavedByObjectVersion
1070
     0
  0
ACAD_PROXY_OBJECT
  5
37
102
{ACAD_REACTORS
330
2A
102
}
330
2A
100
AcDbProxyObject
 90
      499
 91
      501
 93
      412
310
41D51A1A58DAD95B90D409028333333333333E33F0000000000000F9010790141107004050150C41D405064090741402480A0350
1001
ACAD
1000
AcDbSavedByObjectVersion
1070
     0
  0
ACAD_PROXY_OBJECT
  5
30
102
{ACAD_REACTORS
330
2A
102
}
330
2A
100
AcDbProxyObject
 90
      499
 91
      501
 93
      420
310
4255DA5C99599C985B595059028333333333333E33F0000000000000F90107901411070040501600405405064090740C02480A0340
1001
ACAD
1000
AcDbSavedByObjectVersion
1070
     0
  0
ACAD_PROXY_OBJECT
  5
40
102
{ACAD_REACTORS
330
2A
102
}
330
2A
100
AcDbProxyObject
 90
      499
 91
      501
 93
      404
310
41560B54985E51940902404000000000000E03F0000000000000F9010740501907004050150841D405064090740C02480A1B40
1001
ACAD
1000
AcDbSavedByObjectVersion
1070
     0
  0
XRECORD
  5
290
102
{ACAD_REACTORS
330
287
102
}
330
287
100
AcDbXrecord
 90
        0
  0
XRECORD
  5
2A6
102
{ACAD_REACTORS
330
287
102
}
330
287
100
AcDbXrecord
1000
DSTYLE
1002
{
1070
   340
340
11
1002
}
  0
XRECORD
  5
291
102
{ACAD_REACTORS
330
287
102
}
330
287
100
AcDbXrecord
  1
{B2631800-BA9C-4362-BEE7-2FBCA5264FCB}
  0
XRECORD
  5
28A
102
{ACAD_REACTORS
330
287
102
}
330
287
100
AcDbXrecord
  1

  0
XRECORD
  5
28F
102
{ACAD_REACTORS
330
287
102
}
330
287
100
AcDbXrecord
 90
        1
  0
XRECORD
  5
28C
102
{ACAD_REACTORS
330
287
102
}
330
287
100
AcDbXrecord
340
1A
  0
XRECORD
  5
28E
102
{ACAD_REACTORS
330
287
102
}
330
287
100
AcDbXrecord
 90
    10781
  0
XRECORD
  5
28D
102
{ACAD_REACTORS
330
287
102
}
330
287
100
AcDbXrecord
340
19
  0
XRECORD
  5
293
102
{ACAD_REACTORS
330
287
102
}
330
287
100
AcDbXrecord
 40
0.0
  0
XRECORD
  5
296
102
{ACAD_REACTORS
330
287
102
}
330
287
100
AcDbXrecord
340
0
  0
XRECORD
  5
29C
102
{ACAD_REACTORS
330
287
102
}
330
287
100
AcDbXrecord
 10
0.0
 20
0.0
 30
0.0
  0
XRECORD
  5
298
102
{ACAD_REACTORS
330
287
102
}
330
287
100
AcDbXrecord
 10
0.0
 20
0.0
 30
0.0
  0
XRECORD
  5
29B
102
{ACAD_REACTORS
330
287
102
}
330
287
100
AcDbXrecord
 10
0.0
 20
0.0
 30
0.0
  0
XRECORD
  5
299
102
{ACAD_REACTORS
330
287
102
}
330
287
100
AcDbXrecord
 10
0.0
 20
0.0
 30
0.0
  0
XRECORD
  5
29A
102
{ACAD_REACTORS
330
287
102
}
330
287
100
AcDbXrecord
 10
0.0
 20
0.0
 30
0.0
  0
XRECORD
  5
297
102
{ACAD_REACTORS
330
287
102
}
330
287
100
AcDbXrecord
 10
0.0
 20
0.0
 30
0.0
  0
XRECORD
  5
294
102
{ACAD_REACTORS
330
287
102
}
330
287
100
AcDbXrecord
340
0
  0
XRECORD
  5
295
102
{ACAD_REACTORS
330
287
102
}
330
287
100
AcDbXrecord
 70
     0
  0
XRECORD
  5
28B
102
{ACAD_REACTORS
330
287
102
}
330
287
100
AcDbXrecord
  1

  0
XRECORD
  5
288
102
{ACAD_REACTORS
330
287
102
}
330
287
100
AcDbXrecord
 90
        1
  0
XRECORD
  5
289
102
{ACAD_REACTORS
330
287
102
}
330
287
100
AcDbXrecord
 90
       70
  0
XRECORD
  5
29F
102
{ACAD_REACTORS
330
287
102
}
330
287
100
AcDbXrecord
340
0
  0
XRECORD
  5
2A5
102
{ACAD_REACTORS
330
287
102
}
330
287
100
AcDbXrecord
 10
0.0
 20
0.0
 30
0.0
  0
XRECORD
  5
2A1
102
{ACAD_REACTORS
330
287
102
}
330
287
100
AcDbXrecord
 10
0.0
 20
0.0
 30
0.0
  0
XRECORD
  5
2A4
102
{ACAD_REACTORS
330
287
102
}
330
287
100
AcDbXrecord
 10
0.0
 20
0.0
 30
0.0
  0
XRECORD
  5
2A2
102
{ACAD_REACTORS
330
287
102
}
330
287
100
AcDbXrecord
 10
0.0
 20
0.0
 30
0.0
  0
XRECORD
  5
2A3
102
{ACAD_REACTORS
330
287
102
}
330
287
100
AcDbXrecord
 10
0.0
 20
0.0
 30
0.0
  0
XRECORD
  5
2A0
102
{ACAD_REACTORS
330
287
102
}
330
287
100
AcDbXrecord
 10
0.0
 20
0.0
 30
0.0
  0
XRECORD
  5
29D
102
{ACAD_REACTORS
330
287
102
}
330
287
100
AcDbXrecord
340
0
  0
XRECORD
  5
29E
102
{ACAD_REACTORS
330
287
102
}
330
287
100
AcDbXrecord
 70
     0
  0
XRECORD
  5
292
102
{ACAD_REACTORS
330
287
102
}
330
287
100
AcDbXrecord
  1
{FAEB1C32-E019-11D5-929B-00C0DF256EC4}
  0
DICTIONARYVAR
  5
2B0
102
{ACAD_REACTORS
330
2A7
102
}
330
2A7
100
DictionaryVariables
280
     0
  1
1:1
  0
DICTIONARYVAR
  5
2AC
102
{ACAD_REACTORS
330
2A7
102
}
330
2A7
100
DictionaryVariables
280
     0
  1
2
  0
DICTIONARYVAR
  5
2AD
102
{ACAD_REACTORS
330
2A7
102
}
330
2A7
100
DictionaryVariables
280
     0
  1
1
  0
DICTIONARYVAR
  5
2B1
102
{ACAD_REACTORS
330
2A7
102
}
330
2A7
100
DictionaryVariables
280
     0
  1
1
  0
DICTIONARY
  5
2B4
330
45
100
AcDbDictionary
280
     1
  3
ACAD_XREC_ROUNDTRIP
360
2B5
  0
DICTIONARY
  5
2B2
330
44
100
AcDbDictionary
280
     1
  3
ACAD_XREC_ROUNDTRIP
360
2B3
  0
DICTIONARY
  5
2B6
330
46
100
AcDbDictionary
280
     1
  3
ACAD_XREC_ROUNDTRIP
360
2B7
  0
XRECORD
  5
2B5
102
{ACAD_REACTORS
330
2B4
102
}
330
2B4
100
AcDbXrecord
102
MATERIAL
148
0.0
149
0.0
149
0.0
 93
        0
 94
      127
282
     0
 72
     1
 77
     1
171
     1
175
     1
179
     1
273
     0
  0
XRECORD
  5
2B3
102
{ACAD_REACTORS
330
2B2
102
}
330
2B2
100
AcDbXrecord
102
MATERIAL
148
0.0
149
0.0
149
0.0
 93
        0
 94
      127
282
     0
 72
     1
 77
     1
171
     1
175
     1
179
     1
273
     0
  0
XRECORD
  5
2B7
102
{ACAD_REACTORS
330
2B6
102
}
330
2B6
100
AcDbXrecord
102
MATERIAL
148
0.0
149
0.0
149
0.0
 93
        0
 94
      127
282
     0
 72
     1
 77
     1
171
     1
175
     1
179
     1
273
     0
  0
ENDSEC
  0
EOF
